<svg xmlns="http://www.w3.org/2000/svg" viewBox="0 0 48 48" id="smart-ac"><g data-name="Air Conditioner"><path fill="#dad7e5" d="M47 15v8H1v-8a2 2 0 0 1 2-2h42a2 2 0 0 1 2 2Z"></path><path fill="#edebf2" d="M47 14.6V23H4V13h41a1.84 1.84 0 0 1 2 1.6Z"></path><path fill="#9fdbf3" d="M47 23v6a2 2 0 0 1-2 2h-3v-4H6v4H3a2 2 0 0 1-2-2v-6Z"></path><path fill="#5b9ad8" d="M6 27h36v4H6z"></path><path fill="#6fabe6" d="M6 29h34v2H6z"></path><path fill="#9fdbf3" d="M43 35H5l1-4h36l1 4z"></path><path fill="#b2e5fb" d="M43 35H7c.48-1.44.72-3 2.44-3h32.81Z"></path><path fill="#9dcc6b" d="M44 18a1 1 0 0 0-2 0 1 1 0 0 0 2 0"></path><path fill="#6fabe6" d="M40 18a1 1 0 0 0-2 0 1 1 0 0 0 2 0"></path><path fill="#fc6" d="M25.41 7.59a2 2 0 0 0-2.82 0 1 1 0 0 1-1.42-1.42c2.62-2.62 7.17-.09 5.66 1.42a1 1 0 0 1-1.42 0Z"></path><path fill="#fc6" d="M28.24 4.76a6 6 0 0 0-8.48 0 1 1 0 0 1-1.42-1.42 8 8 0 0 1 11.32 0 1 1 0 0 1-1.42 1.42zM25 10a1 1 0 0 0-2 0 1 1 0 0 0 2 0"></path><path fill="#b2e5fb" d="M23 46v-8a1 1 0 0 1 2 0v8a1 1 0 0 1-2 0zm-13 1a1 1 0 0 1 0-2 5 5 0 0 0 5-5v-2a1 1 0 0 1 2 0v2a7 7 0 0 1-7 7zm28 0a7 7 0 0 1-7-7v-2a1 1 0 0 1 2 0v2a5 5 0 0 0 5 5 1 1 0 0 1 0 2zM4 23v4a2 2 0 0 0 2 2v-2h36v2h5v-6z"></path></g></svg>