<svg xmlns="http://www.w3.org/2000/svg" data-name="Flat Gradient" viewBox="0 0 64 64" id="add-user"><defs><linearGradient id="a" x1="3" x2="59" y1="30.999" y2="30.999" gradientUnits="userSpaceOnUse"><stop offset="0" stop-color="#ff81ff"></stop><stop offset="1" stop-color="#a93aff"></stop></linearGradient></defs><path fill="url(#a)" d="M13.15252,14.90525c.62629-15.1427,22.207-15.14712,22.83563-.00009a11.41782,11.41782,0,0,1-22.83563.00009ZM59,47.02211c-.29905,13.42545-18.83886,15.7706-22.57625,3.02841A11.4899,11.4899,0,1,1,59,47.02211Zm-5.94221-1.03686H48.54668V41.62967a1.037,1.037,0,0,0-2.07408,0v4.35558H41.96151a1.037,1.037,0,1,0,0,2.07407H46.4726v4.36585a1.03716,1.03716,0,0,0,2.07408.00005v-4.3659h4.51115A1.03715,1.03715,0,0,0,53.05783,45.98525Zm-19.11261,1.037a13.58045,13.58045,0,0,1,6.3985-11.51117c-13.19055-14.272-37.37359-4.75695-37.34365,14.6951A1.03983,1.03983,0,0,0,4.037,51.243H34.61925A13.6766,13.6766,0,0,1,33.94522,47.02229Z"></path></svg>