<svg xmlns="http://www.w3.org/2000/svg" viewBox="0 0 64 64" id="swimming-pool"><path fill="#e2eef2" fill-rule="evenodd" d="M5,26.19v4.61c0,7.3,5.98,13.29,13.29,13.29h13.67c0,.07,0,.14,0,.21,0,6,4.94,10.94,10.94,10.94h5.17c6,0,10.93-4.94,10.93-10.94v-4.61L5,26.19Z"></path><path fill="#f0f4f6" fill-rule="evenodd" d="M18.29,12.9c-7.3,0-13.29,5.98-13.29,13.29s5.98,13.29,13.29,13.29h13.67c0,.07,0,.14,0,.21,0,6,4.94,10.94,10.94,10.94h5.17c6,0,10.93-4.94,10.93-10.94,0-5.47-4.16-9.85-9.43-10.63,.21-.94,.43-1.88,.43-2.87,0-7.3-5.98-13.29-13.29-13.29H18.29Z"></path><path fill="#62d9fa" fill-rule="evenodd" d="M18.29,16.27c-5.5,0-9.92,4.42-9.92,9.92s4.42,9.92,9.92,9.92h14.54c1.87,0,2.58,1.39,2.5,3.24,0,.11,0,.22,0,.34,0,4.19,3.38,7.57,7.57,7.57h5.17c4.19,0,7.57-3.38,7.57-7.57s-3.38-7.57-7.57-7.57c-1.87,0-2.41-1.23-1.86-3.01,.28-.92,.43-1.9,.43-2.92,0-5.5-4.42-9.92-9.92-9.92H18.29Z"></path><path fill="#758797" fill-rule="evenodd" d="M24.47 12.9v-2.23c0-1.59-1.31-2.9-2.9-2.9s-2.9 1.31-2.9 2.9v9.34c0 .55.45 1 1 1s1-.45 1-1V10.67c0-.52.39-.9.9-.9s.9.38.9.9v2.23h2zM31.2 12.9v-2.23c0-1.59-1.31-2.9-2.9-2.9s-2.9 1.31-2.9 2.9v9.34c0 .55.45 1 1 1s1-.45 1-1V10.67c0-.52.39-.9.9-.9s.9.38.9.9v2.23h2z"></path><path fill="#0acffb" fill-rule="evenodd" d="M28.21 19.04c-1.02 0-2.03.2-2.98.62h0c-1.38.62-2.96.62-4.34.01-1.91-.84-4.08-.84-5.99 0-.5.22-.73.82-.51 1.32.16.36.52.6.91.6.14 0 .28-.03.41-.09 1.39-.62 2.98-.62 4.37 0h0c1.9.84 4.06.83 5.95-.01h0c.69-.3 1.43-.45 2.17-.45.74 0 1.48.16 2.17.46.5.22 1.1 0 1.32-.51.22-.5 0-1.1-.51-1.32-.95-.42-1.96-.63-2.98-.64zM49.21 36.84c-.78 0-1.56.16-2.29.48h0c-.94.42-2.02.43-2.96.01-1.47-.65-3.14-.65-4.61 0-.5.22-.73.82-.51 1.32.16.36.52.6.92.6.14 0 .28-.03.4-.09.95-.42 2.04-.42 2.99 0h0c1.46.64 3.12.64 4.58 0h0c.47-.21.97-.31 1.48-.31.51 0 1.01.11 1.48.32.13.06.27.09.41.09.4 0 .75-.23.91-.59.22-.5 0-1.1-.51-1.32-.73-.32-1.51-.49-2.29-.49h0zM28.68 23.08c-1.02 0-2.04.21-3 .63-.5.22-.73.82-.51 1.32.22.5.82.73 1.32.51 1.39-.62 2.98-.62 4.37 0 .5.22 1.1-.01 1.32-.51.22-.5 0-1.1-.51-1.32-.95-.42-1.97-.63-2.99-.63zM39 23.08c-1.02 0-2.03.2-2.98.62-.36.16-.6.52-.6.92 0 .14.03.28.09.4.16.36.52.6.92.6.14 0 .27-.03.4-.08.69-.3 1.43-.45 2.17-.45.74 0 1.48.16 2.17.46.5.22 1.1 0 1.32-.51.06-.13.09-.27.09-.41 0-.39-.23-.75-.6-.91-.95-.42-1.96-.63-2.98-.64zM17.97 28.36c-1.02 0-2.04.21-3 .63-.5.22-.73.82-.51 1.32.22.5.82.73 1.32.51 1.39-.62 2.98-.62 4.37 0h0c1.9.84 4.07.83 5.96-.01.36-.16.59-.52.59-.91 0-.14-.03-.28-.09-.41-.22-.5-.82-.73-1.32-.51-1.38.61-2.96.62-4.34 0h0c-.95-.42-1.97-.63-2.99-.63zM32.34 28.39h0c-.55 0-1 .45-1 1h0c0 .55.45 1 1 1 .74 0 1.48.15 2.17.46.5.22 1.1 0 1.32-.51s0-1.1-.51-1.32c-.95-.42-1.97-.63-2.98-.64z"></path><path fill="#758797" fill-rule="evenodd" d="M20.09,16.19c-.55,0-1,.45-1,1s.45,1,1,1h5.68c.55,0,1-.45,1-1s-.45-1-1-1h-5.68Zm0-4.29c-.55,0-1,.45-1,1s.45,1,1,1h5.68c.55,0,1-.45,1-1s-.45-1-1-1h-5.68Z"></path></svg>