<svg width="50" height="50" viewBox="0 0 50 50" fill="none" xmlns="http://www.w3.org/2000/svg">
<path d="M13.0859 49.7012C13.334 49.4531 36.6582 49.4531 36.4102 49.7012C36.4102 45.2832 32.2246 40.625 26.7266 39.6953V34.7188H22.7617V39.6953C17.2637 40.627 13.0859 45.2832 13.0859 49.7012Z" fill="#FCC2B0"/>
<path d="M31.5293 47.2637H35.9941C34.9707 44.1641 32.1113 41.3105 28.4355 40.1172C27.2937 40.6123 26.061 40.8632 24.8165 40.8537C23.572 40.8443 22.3432 40.5748 21.209 40.0625C17.4551 41.2188 14.5254 44.1133 13.4863 47.2637H17.9512V49.5469C21.9375 49.5039 27.5449 49.5039 31.5293 49.5469V47.2637Z" fill="#3593BB"/>
<path d="M35.9922 47.2637H31.4785V48.2402H36.2539C36.1862 47.9098 36.0988 47.5837 35.9922 47.2637ZM13.498 47.2637C13.3911 47.5834 13.3044 47.9096 13.2383 48.2402H18.0117V47.2637H13.498ZM24.3438 40.834C24.1973 40.834 24.0508 40.8125 23.9082 40.7988H23.832C23.6836 40.7812 23.5371 40.7617 23.3926 40.7383H23.377C23.2285 40.7129 23.084 40.6855 22.9414 40.6543H22.9082C22.7637 40.6211 22.625 40.5859 22.4863 40.5488L22.4414 40.5352C22.3008 40.4961 22.1641 40.4551 22.0293 40.4082H22.0195C21.753 40.3162 21.4922 40.2086 21.2383 40.0859H21.2207C20.9375 40.1738 20.6582 40.2812 20.3828 40.3809C21.5156 41.1621 23.1172 41.6582 24.8926 41.6582C26.6113 41.6582 28.168 41.1992 29.293 40.4551C29.0156 40.3418 28.7344 40.2344 28.4453 40.1406C28.3223 40.1973 28.1953 40.252 28.0547 40.3027H28.041C27.7714 40.4074 27.4962 40.4974 27.2168 40.5723C27.0866 40.6074 26.9479 40.6406 26.8008 40.6719L26.75 40.6816C26.6094 40.7109 26.4688 40.7363 26.3242 40.7598H26.3125C26.1758 40.7812 26.0352 40.7988 25.8926 40.8145H25.8301C25.6914 40.8301 25.5508 40.8398 25.4082 40.8477H25.3242C25.1777 40.8477 25.0313 40.8594 24.8828 40.8594C24.7344 40.8594 24.5723 40.8594 24.4199 40.8477L24.3438 40.834Z" fill="#C3EDFC"/>
<path d="M17.9688 47.2656H31.4453V48.8281H17.9688V47.2656Z" fill="#41ACC1"/>
<path d="M22.7617 34.7188H26.7188V37.8926H22.7617V34.7188Z" fill="#F7B59E"/>
<path d="M19.7106 5.37165C19.7106 5.37165 20.5348 3.23493 21.7985 2.58454C21.5758 2.53962 19.1403 3.08454 17.5778 5.29353C16.1891 7.25837 18.7497 6.54157 18.7497 6.54157L19.7106 5.37165Z" fill="#D49905"/>
<path d="M17.0231 6.93937C17.0231 6.93937 17.7184 4.25969 18.9449 3.52531C18.7184 3.4843 16.7965 4.63078 15.0387 7.28312C13.7047 9.29484 16.1266 8.1718 16.1266 8.1718L17.0231 6.93937ZM21.7262 4.37492C21.7262 4.37492 22.6109 2.82609 23.6793 2.50187C23.5113 2.4257 22.3531 2.16594 21.2203 3.68547C20.0875 5.205 20.8512 5.14836 20.8512 5.14836L21.7262 4.37492ZM29.3395 5.15031C29.3395 5.15031 28.5152 3.01359 27.2516 2.3632C27.4762 2.30656 29.9117 2.8632 31.4742 5.07219C32.8629 7.03703 30.3023 6.32023 30.3023 6.32023L29.3395 5.15031Z" fill="#D49905"/>
<path d="M32.0314 6.71875C32.0314 6.71875 31.338 4.03906 30.1114 3.30469C30.338 3.26367 32.2599 4.41016 34.0177 7.06055C35.3517 9.07422 32.9298 7.95117 32.9298 7.95117L32.0314 6.71875ZM27.3263 4.1543C27.3263 4.1543 26.4415 2.60547 25.3732 2.28125C25.5411 2.20508 26.6974 1.94531 27.8321 3.46484C28.9669 4.98438 28.2013 4.92773 28.2013 4.92773L27.3263 4.1543ZM24.2931 4C24.2931 4 25.3907 2.19922 25.1954 1.75781C24.6095 2.41992 23.795 2.72266 22.8517 3.74609C21.5821 5.12305 23.5685 4.96094 23.5685 4.96094L24.2931 4Z" fill="#D49905"/>
<path d="M11.5237 24.1985C12.1663 25.0188 12.0432 27.3079 11.7464 27.5423C11.4495 27.7766 9.2073 27.3469 8.55495 26.5286C8.24597 26.1349 8.10602 25.6346 8.16591 25.1377C8.2258 24.6409 8.48061 24.1882 8.87429 23.8792C9.26797 23.5702 9.76827 23.4302 10.2651 23.4901C10.762 23.55 11.2147 23.8048 11.5237 24.1985ZM38.555 24.1985C37.9124 25.0188 38.0354 27.3079 38.3323 27.5423C38.6292 27.7766 40.8811 27.3469 41.5237 26.5286C41.6767 26.3337 41.7898 26.1105 41.8566 25.8719C41.9233 25.6332 41.9424 25.3838 41.9127 25.1377C41.8831 24.8917 41.8053 24.654 41.6837 24.438C41.5622 24.2221 41.3993 24.0322 41.2044 23.8792C41.0094 23.7262 40.7863 23.6131 40.5476 23.5463C40.309 23.4796 40.0595 23.4605 39.8135 23.4901C39.5675 23.5198 39.3297 23.5976 39.1138 23.7191C38.8978 23.8407 38.7079 24.0036 38.555 24.1985Z" fill="#FCC2B0"/>
<path d="M38.9748 24.6953C39.9826 33.252 33.6506 36.8145 25.1076 36.8145C16.5646 36.8145 9.84392 33.252 10.8595 24.7051C11.9045 16.1484 11.9181 10.0156 24.9221 10.0156C38.0861 10.0059 37.9299 16.1387 38.9748 24.6953Z" fill="#FCCDBF"/>
<path d="M26.1719 25.9544C26.1591 25.6296 26.0211 25.3224 25.7868 25.0971C25.5524 24.8719 25.2401 24.7461 24.915 24.7461C24.59 24.7461 24.2776 24.8719 24.0433 25.0971C23.809 25.3224 23.671 25.6296 23.6582 25.9544" stroke="#D17A43" stroke-width="3" stroke-linecap="round" stroke-linejoin="round"/>
<path d="M16.4199 18.4912C16.5718 18.3023 16.7614 18.147 16.9767 18.0354C17.1919 17.9238 17.428 17.8582 17.6699 17.8428C17.9025 17.8294 18.1354 17.8619 18.3555 17.9385M33.2363 18.4912C33.0844 18.3023 32.8948 18.147 32.6796 18.0354C32.4644 17.9238 32.2283 17.8582 31.9863 17.8428C31.7537 17.8294 31.5208 17.8619 31.3008 17.9385" stroke="#A67804" stroke-width="5" stroke-linecap="round" stroke-linejoin="round"/>
<path d="M17.7773 25.3281C18.8345 25.3281 19.6914 24.4712 19.6914 23.4141C19.6914 22.357 18.8345 21.5 17.7773 21.5C16.7202 21.5 15.8633 22.357 15.8633 23.4141C15.8633 24.4712 16.7202 25.3281 17.7773 25.3281Z" fill="white"/>
<path d="M17.7773 24.6328C18.4504 24.6328 18.9961 24.0872 18.9961 23.4141C18.9961 22.741 18.4504 22.1953 17.7773 22.1953C17.1042 22.1953 16.5586 22.741 16.5586 23.4141C16.5586 24.0872 17.1042 24.6328 17.7773 24.6328Z" fill="#271D13"/>
<path d="M18.4746 23.5859C18.7626 23.5859 18.9961 23.3525 18.9961 23.0645C18.9961 22.7764 18.7626 22.543 18.4746 22.543C18.1866 22.543 17.9531 22.7764 17.9531 23.0645C17.9531 23.3525 18.1866 23.5859 18.4746 23.5859Z" fill="white"/>
<path d="M16.1895 22.3414C16.3474 22.1058 16.5557 21.9082 16.7992 21.7628C17.0428 21.6175 17.3156 21.528 17.598 21.5009C17.8803 21.4739 18.1652 21.5098 18.4319 21.6062C18.6987 21.7025 18.9408 21.8569 19.1406 22.0582" stroke="#271D13" stroke-width="2" stroke-linecap="round" stroke-linejoin="round"/>
<path d="M31.8789 25.3281C32.936 25.3281 33.793 24.4712 33.793 23.4141C33.793 22.357 32.936 21.5 31.8789 21.5C30.8218 21.5 29.9648 22.357 29.9648 23.4141C29.9648 24.4712 30.8218 25.3281 31.8789 25.3281Z" fill="white"/>
<path d="M31.8789 24.6328C32.552 24.6328 33.0977 24.0872 33.0977 23.4141C33.0977 22.741 32.552 22.1953 31.8789 22.1953C31.2058 22.1953 30.6602 22.741 30.6602 23.4141C30.6602 24.0872 31.2058 24.6328 31.8789 24.6328Z" fill="#271D13"/>
<path d="M33.4668 22.3434C33.3085 22.1094 33.1005 21.9133 32.8576 21.769C32.6148 21.6247 32.343 21.5359 32.0618 21.5088C31.7806 21.4818 31.4969 21.5172 31.231 21.6125C30.965 21.7078 30.7234 21.8607 30.5234 22.0602" stroke="#271D13" stroke-width="2" stroke-linecap="round" stroke-linejoin="round"/>
<path d="M32.748 23.5859C33.0361 23.5859 33.2695 23.3525 33.2695 23.0645C33.2695 22.7764 33.0361 22.543 32.748 22.543C32.46 22.543 32.2266 22.7764 32.2266 23.0645C32.2266 23.3525 32.46 23.5859 32.748 23.5859Z" fill="white"/>
<path d="M31.0156 30.2734C29.8828 31.0547 28.125 32.2266 25.1953 32.2266C22.2656 32.2266 20.7734 31.0918 19.6133 30.3418" stroke="#D17A43" stroke-width="2" stroke-linejoin="round"/>
<path d="M31.0864 30.8242C31.1369 30.7466 31.1656 30.6568 31.1694 30.5642C31.1732 30.4717 31.152 30.3798 31.1081 30.2982C31.0641 30.2167 30.999 30.1485 30.9196 30.1008C30.8401 30.0532 30.7493 30.0278 30.6567 30.0273M19.5981 30.8242C19.5475 30.7464 19.5188 30.6564 19.5151 30.5637C19.5113 30.471 19.5327 30.379 19.5769 30.2974C19.6211 30.2158 19.6865 30.1476 19.7662 30.1001C19.8459 30.0526 19.937 30.0274 20.0297 30.0273" stroke="#D17A43" stroke-linecap="round" stroke-linejoin="round"/>
<path d="M15.4914 29.3375C16.8864 29.2878 17.9894 28.4689 17.9552 27.5084C17.921 26.5479 16.7625 25.8096 15.3675 25.8593C13.9726 25.9089 12.8695 26.7279 12.9037 27.6884C12.938 28.6488 14.0965 29.3872 15.4914 29.3375Z" fill="#F4ABA8"/>
<path opacity="0.2" d="M14.1211 27.7656C14.5062 27.7656 14.8184 27.4534 14.8184 27.0684C14.8184 26.6833 14.5062 26.3711 14.1211 26.3711C13.736 26.3711 13.4238 26.6833 13.4238 27.0684C13.4238 27.4534 13.736 27.7656 14.1211 27.7656Z" fill="white"/>
<path d="M36.758 27.6908C36.7922 26.7303 35.6891 25.9114 34.2942 25.8617C32.8992 25.812 31.7407 26.5504 31.7065 27.5109C31.6723 28.4714 32.7753 29.2903 34.1703 29.34C35.5652 29.3897 36.7238 28.6513 36.758 27.6908Z" fill="#F4ABA8"/>
<path opacity="0.2" d="M35.5391 27.7656C35.9242 27.7656 36.2363 27.4534 36.2363 27.0684C36.2363 26.6833 35.9242 26.3711 35.5391 26.3711C35.154 26.3711 34.8418 26.6833 34.8418 27.0684C34.8418 27.4534 35.154 27.7656 35.5391 27.7656Z" fill="white"/>
<path d="M40.0393 17.7734C40.0558 20.3809 39.6223 22.9716 38.7581 25.4316C37.7483 28.2539 38.9436 15.2383 35.1038 13.3223C31.264 11.4062 30.1702 14.1328 24.4143 14.4082C21.1468 14.5625 15.7561 10.3203 13.9964 14.1328C12.3518 17.6973 12.0784 20.7129 11.803 24.0039C11.7268 24.9219 11.1097 25.1016 10.8811 24.1504C10.39 22.0606 10.1468 19.9202 10.1565 17.7734C10.1565 9.86328 16.846 3.44922 25.0979 3.44922C33.3499 3.44922 40.0393 9.85547 40.0393 17.7734Z" fill="#D49905"/>
</svg>
