<svg xmlns="http://www.w3.org/2000/svg" viewBox="0 0 47.5 47.5" id="office"><defs><clipPath id="a"><path d="M0 38h38V0H0v38Z"></path></clipPath></defs><g clip-path="url(#a)" transform="matrix(1.25 0 0 -1.25 0 47.5)"><path fill="#bcbec0" d="M37 3a2 2 0 0 0-2-2H3a2 2 0 0 0-2 2v20a2 2 0 0 0 2 2h32a2 2 0 0 0 2-2V3Z"></path><path fill="#d1d3d4" d="M27 37H11a2 2 0 0 1-2-2V1h20v34a2 2 0 0 1-2 2"></path><path fill="#55acee" d="M27 31H11v4h16v-4zm0-30H11v4h16V1z"></path><path fill="#3b88c3" d="M21 1h-4v4h4V1z"></path><path fill="#55acee" d="M15 25h-4v4h4v-4zm0-6h-4v4h4v-4zm0-6h-4v4h4v-4zm0-6h-4v4h4V7zm6 0h-4v4h4V7zm6 0h-4v4h4V7zm0 6h-4v4h4v-4zm0 6h-4v4h4v-4zm0 6h-4v4h4v-4zm-6-12h-4v4h4v-4zm0 6h-4v4h4v-4zm0 6h-4v4h4v-4zM7 19H3v4h4v-4zm0-6H3v4h4v-4zm0-6H3v4h4V7zm28 0h-4v4h4V7zm0 6h-4v4h4v-4zm0 6h-4v4h4v-4z"></path></g></svg>