<svg xmlns="http://www.w3.org/2000/svg" viewBox="0 0 96 96" id="saw"><path fill="#ffbe0b" d="M5.87,77.12a2.53,2.53,0,1,0,3.58,3.57l1.06-1.06a1.44,1.44,0,0,1,2.16.15l10.63,14a3,3,0,0,0,4.5.31L42.42,79.51C32.36,66.2,36.21,71.29,25.64,57.34Zm30.7,2-5,5a3.78,3.78,0,0,1-5.69-.39l-6.77-9a3.76,3.76,0,0,1,.34-5l5.71-5.71Z"></path><path fill="#ff822e" d="M26.24,90.89l-10.63-14a1.44,1.44,0,0,0-2.17-.15l-1.06,1.06a2.53,2.53,0,1,1-3.57-3.58L5.87,77.12a2.53,2.53,0,1,0,3.58,3.57l1.06-1.06a1.44,1.44,0,0,1,2.16.15l10.63,14a3,3,0,0,0,4.5.31l2.94-2.94A3,3,0,0,1,26.24,90.89Z"></path><path fill="#d2d7f7" d="M86.51,2.65l4.7,6.21a2.06,2.06,0,0,1-1,3.2L86.8,13.21l-.17,6.48-6.15,2.06-.16,6.48-6.15,2.06L74,36.77l-6.15,2.06-.16,6.49-6.15,2-.16,6.49-6.16,2.06-.16,6.49-6.15,2L48.74,71,42.59,73l-.17,6.49L25.64,57.34,80.74,2.25A3.83,3.83,0,0,1,86.51,2.65Z"></path><path fill="#b4b9f7" d="M58.47,45.36l-.11,4.73a1,1,0,0,1-.71,1l-5.47,1.83L52,59.37l-6.15,2.05-.17,6.49L39.55,70l-.15,5.56L25.64,57.34l11.11-11.1A8.37,8.37,0,0,1,43,43.8l14.51.49A1,1,0,0,1,58.47,45.36Z"></path><path fill="#b4b9f7" d="M34.24,60.27a1,1,0,0,1-.7-1.71L64.43,27.67a1,1,0,0,1,1.41,1.41L35,60A1,1,0,0,1,34.24,60.27Z"></path></svg>