<svg xmlns="http://www.w3.org/2000/svg" data-name="Layer 1" viewBox="0 0 512 512" id="trash"><path fill="#00acea" d="M340.4,84.9h-20V62.5a20.023,20.023,0,0,0-20-20H211.6a20.023,20.023,0,0,0-20,20V84.9h-20V62.5a40.045,40.045,0,0,1,40-40h88.8a40.045,40.045,0,0,1,40,40Z" data-name="<Group>"></path><path fill="#00efd1" d="M419.2,115.3v56H92.8v-56a30,30,0,0,1,30-30H389.2A30,30,0,0,1,419.2,115.3Z"></path><path fill="#00acea" d="M390.6,171.7V436.5c0,25.09-17.91,43-40,43H161.4c-22.09,0-40-17.91-40-43V171.3H390.6Z"></path><path fill="#fedb41" d="M315.4 426.7a10 10 0 0 1-10-10v-199a10 10 0 1 1 20 0v199A10 10 0 0 1 315.4 426.7zM196.6 426.7a10 10 0 0 1-10-10v-199a10 10 0 0 1 20 0v199A10 10 0 0 1 196.6 426.7z" data-name="<Group>"></path></svg>