<svg xmlns="http://www.w3.org/2000/svg" width="26" height="26" id="round"><g transform="translate(0 -1026.362)"><circle cx="13" cy="1039.362" r="13" fill="#ef4c45" fill-rule="evenodd"></circle><path style="line-height:normal;text-indent:0;text-align:start;text-decoration-line:none;text-decoration-style:solid;text-decoration-color:#000;text-transform:none;block-progression:tb;isolation:auto;mix-blend-mode:normal;marker:none" fill="#df2209" d="M15.807 25.676a13 13 0 0 0 .67-.15 13 13 0 0 0 1.234-.409 13 13 0 0 0 1.185-.531 13 13 0 0 0 1.127-.647 13 13 0 0 0 1.057-.755 13 13 0 0 0 .977-.858 13 13 0 0 0 .886-.951 13 13 0 0 0 .786-1.035 13 13 0 0 0 .68-1.108 13 13 0 0 0 .566-1.17 13 13 0 0 0 .445-1.22 13 13 0 0 0 .262-1.031l-7.393-7.393-.002.002-.707-.707A6.967 6.967 0 0 0 13 6c-3.872 0-7 3.128-7 7 0 1.756.647 3.355 1.71 4.582l.71.707 7.387 7.387z" color="#000" font-family="sans-serif" font-weight="400" transform="translate(0 1026.362)"></path><path style="line-height:normal;text-indent:0;text-align:start;text-decoration-line:none;text-decoration-style:solid;text-decoration-color:#000;text-transform:none;block-progression:tb;isolation:auto;mix-blend-mode:normal;marker:none" fill="#fff" d="M8 1c1.755 0 3.353.65 4.58 1.713l-9.87 9.869A6.966 6.966 0 0 1 1 8c0-3.872 3.128-7 7-7Zm5.29 2.418A6.967 6.967 0 0 1 15 8c0 3.872-3.128 7-7 7a6.97 6.97 0 0 1-4.58-1.71z" color="#000" font-family="sans-serif" font-weight="400" overflow="visible" transform="translate(5 1031.362)"></path></g></svg>