<svg xmlns="http://www.w3.org/2000/svg" data-name="Layer 1" viewBox="0 0 512 512" id="edit-page"><g data-name=" Group "><path fill="#00efd1" d="M487.14,70V397.62H405.07V205.52l9.43-9.46-9.62-9.62.19-.19V70a40.958,40.958,0,0,1,40.9-41.03h.2a40.964,40.964,0,0,1,40.97,40.9Z"></path><path fill="#00acea" d="M150.87,28.97h295.1A40.958,40.958,0,0,0,405.07,70V186.25l-.19.19-32.57-32.57-77.65,77.48V83.45H111.79V67.56C111.79,46.06,129.38,28.97,150.87,28.97Z"></path><polygon fill="#fedb41" points="414.5 196.06 405.07 205.52 294.65 316.17 267.82 343.07 267.81 343.07 225.3 300.56 294.66 231.36 294.66 231.35 372.31 153.87 404.88 186.44 414.5 196.06"></polygon><path fill="#00acea" d="M405.07,427.83v.11a55.146,55.146,0,0,1-55.14,55.09h-.18c-1.27,0-2.54-.05-3.79-.13a55.136,55.136,0,0,1-51.3-55.07V316.18l-.01-.01L405.07,205.52V427.83Z"></path><path fill="#00efd1" d="M225.3,300.56l-21.36,63.87,63.87-21.36h.01l26.83-26.9.01.01V427.83a55.136,55.136,0,0,0,51.3,55.07l-.01.13H79.99a55.137,55.137,0,0,1-55.13-55.09V83.45h269.8V231.36Z"></path><polygon fill="#f4b844" points="225.3 300.56 267.81 343.07 203.94 364.43 225.3 300.56"></polygon><path fill="#00acea" d="M232.26 300H119.74a8 8 0 0 1 0-16H232.26a8 8 0 0 1 0 16zM178.26 220H119.74a8 8 0 0 1 0-16h58.52a8 8 0 0 1 0 16zM238.26 260H119.74a8 8 0 0 1 0-16H238.26a8 8 0 0 1 0 16zM91 300H79.74a8 8 0 0 1 0-16H91a8 8 0 0 1 0 16zM91 340H79.74a8 8 0 0 1 0-16H91a8 8 0 0 1 0 16zM91 220H79.74a8 8 0 0 1 0-16H91a8 8 0 0 1 0 16zM91 260H79.74a8 8 0 0 1 0-16H91a8 8 0 0 1 0 16z"></path></g></svg>