<svg xmlns="http://www.w3.org/2000/svg" data-name="Layer 2" viewBox="0 0 24 24" id="edit"><defs><linearGradient id="a" x1="8.867" x2="14.303" y1="9.679" y2="15.115" gradientUnits="userSpaceOnUse"><stop offset="0" stop-color="#8e2de2"></stop><stop offset="1" stop-color="#4a00e0"></stop></linearGradient></defs><path fill="url(#a)" d="M20.88 3.086a3.925 3.925 0 0 0-5.42 0L3.291 15.278a1.017 1.017 0 0 0-.27.511l-1 5.009a1.021 1.021 0 0 0 .27.912A1.006 1.006 0 0 0 3 22a1.352 1.352 0 0 0 .2-.02l5-1a1.013 1.013 0 0 0 .51-.271L20.88 8.516a3.851 3.851 0 0 0 0-5.43ZM7.511 19.075l-3.24.651.65-3.246L5 16.4l2.59 2.595ZM19.46 7.093l-.46.471-2.59-2.595.47-.461a1.845 1.845 0 0 1 2.58 0 1.817 1.817 0 0 1 0 2.585Z"></path></svg>