<svg xmlns="http://www.w3.org/2000/svg" enable-background="new 0 0 47.5 47.5" viewBox="0 0 47.5 47.5" id="fire"><defs><clipPath id="a"><path d="M0 38h38V0H0v38Z"></path></clipPath></defs><g clip-path="url(#a)" transform="matrix(1.25 0 0 -1.25 0 47.5)"><path fill="#ccd6dd" d="M0 0h-22a1 1 0 0 1 0-2h2v-2h2v2h2v-2h2v2h2v-2h2v2h2v-2h2v2h2v-2h2v2h2a1 1 0 1 1 0 2" transform="translate(36 32)"></path><path fill="#ccd6dd" d="M0 0a1 1 0 0 0-1-1h-22a1 1 0 0 0 0 2h22a1 1 0 0 0 1-1" transform="translate(37 27)"></path><path fill="#dd2e44" d="M0 0h-18s.041 2-2.979 2h-5.875C-32 2-32-5.959-32-5.959V-13a4 4 0 0 1 4-4H0a4 4 0 0 1 4 4v9a4 4 0 0 1-4 4" transform="translate(33 26)"></path><path fill="#f5f8fa" d="M35 18H3v-3h32v3z"></path><path d="M0 0a4 4 0 1 0-8 0 4 4 0 0 0 8 0" transform="translate(12 9)"></path><path fill="#8899a6" d="M0 0a2 2 0 1 0-4.001.001A2 2 0 0 0 0 0" transform="translate(10 9)"></path><path d="M0 0a4 4 0 1 0-8 0 4 4 0 0 0 8 0" transform="translate(33 9)"></path><path fill="#8899a6" d="M0 0a2 2 0 1 0-4.001.001A2 2 0 0 0 0 0" transform="translate(31 9)"></path><path fill="#55acee" d="M0 0h-5s0 6 3 6h2V0Z" transform="translate(8 20)"></path><path fill="#55acee" d="M0 0h-3v6h1c1 0 2-1 2-2V0Z" transform="translate(13 20)"></path><path fill="#ffac33" d="M0 0a1 1 0 0 0-1-1h-2a1 1 0 0 0 0 2h2a1 1 0 0 0 1-1" transform="translate(9 29)"></path><path fill="#3b88c3" d="M0 0a1 1 0 0 0-1-1h-2a1 1 0 0 0 0 2h2a1 1 0 0 0 1-1" transform="translate(11 29)"></path></g></svg>