<svg xmlns="http://www.w3.org/2000/svg" fill-rule="evenodd" stroke-linejoin="round" stroke-miterlimit="2" clip-rule="evenodd" viewBox="0 0 32 32" id="garbage"><path fill="#5bc0f8" d="M22.015,11c-0.265,0 -0.52,0.105 -0.707,0.293c-0.188,0.188 -0.293,0.442 -0.293,0.707l0.002,10c-0,0.552 0.448,1 1,1l6,0c1.657,-0 3,-1.343 3,-3l-0,-3.333c-0,-0.649 -0.211,-1.281 -0.6,-1.8c-0.513,-0.684 -1.406,-1.875 -2,-2.667c-0.567,-0.755 -1.456,-1.2 -2.4,-1.2c-1.46,-0 -4.002,-0 -4.002,0Z"></path><path fill="#86e5ff" d="M21.016,17l10.001,-0l-0,-0.333c-0,-0.649 -0.211,-1.281 -0.6,-1.8c-0.513,-0.684 -1.406,-1.875 -2,-2.667c-0.567,-0.755 -1.456,-1.2 -2.4,-1.2c-1.46,-0 -4.002,-0 -4.002,0c-0.265,0 -0.52,0.105 -0.707,0.293c-0.188,0.188 -0.293,0.442 -0.293,0.707l0.001,5Z"></path><path fill="#ffc93c" d="M22.009,23c0.552,-0 1,-0.448 1,-1l-0,-14c-0,-0.796 -0.316,-1.559 -0.879,-2.121c-0.563,-0.563 -1.326,-0.879 -2.121,-0.879c-3.832,-0 -12.168,-0 -16,-0c-0.796,-0 -1.559,0.316 -2.122,0.879c-0.562,0.562 -0.878,1.325 -0.878,2.121l-0,12c-0,0.796 0.316,1.559 0.878,2.121c0.563,0.563 1.326,0.879 2.122,0.879c5.065,-0 18,-0 18,-0Z"></path><path fill="#fedd87" d="M12.017,5l-8.008,-0c-0.796,-0 -1.559,0.316 -2.122,0.879c-0.562,0.562 -0.878,1.325 -0.878,2.121l-0,12c-0,0.796 0.316,1.559 0.878,2.121c0.563,0.563 1.326,0.879 2.122,0.879l8.008,-0l-0,-18Z"></path><circle cx="9.013" cy="22.996" r="3.996" fill="#676060"></circle><path fill="#8a8282" d="M9.017,19l-0.004,0c-2.206,0 -3.996,1.791 -3.996,3.996c-0,2.205 1.79,3.996 3.996,3.996l0.004,-0l-0,-7.992Z"></path><circle cx="9.013" cy="22.996" r="1.996" fill="#8a8282"></circle><path fill="#bfbaba" d="M9.017,21l-0,3.992l-0.004,-0c-1.102,-0 -1.996,-0.894 -1.996,-1.996c-0,-1.102 0.894,-1.996 1.996,-1.996l0.004,0Z"></path><circle cx="24.021" cy="22.996" r="3.996" fill="#676060"></circle><path fill="#8a8282" d="M24.025,19l-0.004,0c-2.206,0 -3.996,1.791 -3.996,3.996c-0,2.205 1.79,3.996 3.996,3.996l0.004,-0l-0,-7.992Z"></path><circle cx="24.021" cy="22.996" r="1.996" fill="#8a8282"></circle><path fill="#bfbaba" d="M24.025,21l-0,3.992l-0.004,-0c-1.102,-0 -1.996,-0.894 -1.996,-1.996c-0,-1.102 0.894,-1.996 1.996,-1.996l0.004,0Z"></path><path fill="#54b435" d="M10.499,16l-0.808,-0c-0.235,0 -0.454,-0.122 -0.577,-0.322c-0.124,-0.2 -0.135,-0.45 -0.03,-0.661c-0,-0 0.414,-0.828 0.414,-0.828c0.246,-0.493 0.046,-1.095 -0.448,-1.341c-0.493,-0.247 -1.094,-0.047 -1.341,0.447l-0.414,0.828c-0.415,0.83 -0.371,1.816 0.117,2.606c0.488,0.79 1.351,1.271 2.279,1.271c0.26,-0 0.531,-0 0.808,-0c0.551,-0 1,-0.448 1,-1c-0,-0.552 -0.449,-1 -1,-1Zm4.028,-1.811l0.413,0.828c0.106,0.211 0.094,0.461 -0.029,0.661c-0.124,0.2 -0.343,0.322 -0.578,0.322l-0.807,-0c-0.552,-0 -1,0.448 -1,1c-0,0.552 0.448,1 1,1c0.277,-0 0.547,-0 0.807,-0c0.928,0 1.791,-0.481 2.279,-1.271c0.488,-0.79 0.533,-1.776 0.117,-2.606l-0.414,-0.828c-0.246,-0.494 -0.848,-0.694 -1.341,-0.447c-0.494,0.246 -0.694,0.848 -0.447,1.341Zm-3.626,-2.807l0.504,-1.006c0.115,-0.231 0.35,-0.376 0.607,-0.376c0.257,-0 0.493,0.145 0.608,0.376l0.503,1.006c0.247,0.494 0.848,0.694 1.342,0.447c0.493,-0.247 0.694,-0.848 0.447,-1.341c-0.172,-0.345 -0.341,-0.683 -0.503,-1.007c-0.454,-0.908 -1.382,-1.481 -2.397,-1.481c-1.015,0 -1.942,0.573 -2.396,1.481c-0.162,0.324 -0.331,0.662 -0.504,1.007c-0.246,0.493 -0.046,1.094 0.448,1.341c0.493,0.247 1.094,0.047 1.341,-0.447Z"></path><path fill="#82cd47" d="M10.499,16l-0.808,-0c-0.235,0 -0.454,-0.122 -0.577,-0.322c-0.124,-0.2 -0.135,-0.45 -0.03,-0.661c-0,-0 0.414,-0.828 0.414,-0.828c0.246,-0.493 0.046,-1.095 -0.448,-1.341c-0.493,-0.247 -1.094,-0.047 -1.341,0.447l-0.414,0.828c-0.415,0.83 -0.371,1.816 0.117,2.606c0.488,0.79 1.351,1.271 2.279,1.271c0.26,-0 0.531,-0 0.808,-0c0.551,-0 1,-0.448 1,-1c-0,-0.552 -0.449,-1 -1,-1Zm1.518,-8l-0.005,0c-1.015,0 -1.942,0.573 -2.396,1.481c-0.162,0.324 -0.331,0.662 -0.504,1.007c-0.246,0.493 -0.046,1.094 0.448,1.341c0.493,0.247 1.094,0.047 1.341,-0.447l0.504,-1.006c0.115,-0.231 0.35,-0.376 0.607,-0.376l0.005,0l-0,-2Z"></path></svg>