<svg xmlns="http://www.w3.org/2000/svg" fill-rule="evenodd" stroke-linejoin="round" stroke-miterlimit="2" clip-rule="evenodd" viewBox="0 0 64 64" id="plant"><g transform="translate(-320 -64)"><path fill="url(#_Linear1)" d="M380,122C380,120.895 379.105,120 378,120C369.29,120 334.71,120 326,120C324.895,120 324,120.895 324,122C324,123.105 324.895,124 326,124C334.71,124 369.29,124 378,124C379.105,124 380,123.105 380,122C380,122 380,122 380,122Z" transform="translate(0 -4)"></path><path fill="url(#_Linear2)" d="M341.5,110.189C343.548,106.5 347.484,104 352,104C356.516,104 360.452,106.5 362.5,110.189C362.979,110.066 363.482,110 364,110C367.311,110 370,112.689 370,116C370,116 334,116 334,116C334,112.689 336.689,110 340,110C340.518,110 341.021,110.066 341.5,110.189Z"></path><path fill="url(#_Linear3)" d="M352,104C351.319,104 350.65,104.057 350,104.166L350,97.314C350,95.722 349.368,94.196 348.243,93.071L345.514,90.342C346.635,89.599 347.599,88.635 348.342,87.514L351.071,90.243C351.408,90.579 351.718,90.937 352,91.314C352.283,90.937 352.593,90.579 352.929,90.243L355.658,87.514C356.401,88.635 357.365,89.599 358.487,90.342L355.758,93.071C354.633,94.196 354,95.722 354,97.314L354,104.166C353.37,104.06 352.723,104.004 352.064,104L352,104Z"></path><path fill="url(#_Linear4)" d="M340,68L332,68C330.895,68 330,68.895 330,70L330,78C330,83.519 334.481,88 340,88C345.519,88 350,83.519 350,78C350,72.481 345.519,68 340,68Z" transform="translate(0 4)"></path><path fill="url(#_Linear5)" d="M340,68L332,68C330.895,68 330,68.895 330,70L330,78C330,83.519 334.481,88 340,88C345.519,88 350,83.519 350,78C350,72.481 345.519,68 340,68Z" transform="matrix(-1 0 0 1 704 4)"></path><path fill="url(#_Linear6)" d="M346.327,89.742C346.844,89.318 347.318,88.844 347.742,88.327L345,85.586L345,82C345,81.448 344.552,81 344,81C343.448,81 343,81.448 343,82L343,83.586L341,81.586L341,78C341,77.448 340.552,77 340,77C339.448,77 339,77.448 339,78L339,79.586L336.707,77.293C336.317,76.903 335.683,76.903 335.293,77.293C334.903,77.683 334.903,78.317 335.293,78.707L337.586,81L336,81C335.448,81 335,81.448 335,82C335,82.552 335.448,83 336,83L339.586,83L341.586,85L340,85C339.448,85 339,85.448 339,86C339,86.552 339.448,87 340,87L343.586,87L346.327,89.742Z"></path><path fill="url(#_Linear7)" d="M356.258,88.327L359,85.586L359,82C359,81.448 359.448,81 360,81C360.552,81 361,81.448 361,82L361,83.586L363,81.586L363,78C363,77.448 363.448,77 364,77C364.552,77 365,77.448 365,78L365,79.586L367.293,77.293C367.683,76.903 368.317,76.903 368.707,77.293C369.097,77.683 369.097,78.317 368.707,78.707L366.414,81L368,81C368.552,81 369,81.448 369,82C369,82.552 368.552,83 368,83L364.414,83L362.414,85L364,85C364.552,85 365,85.448 365,86C365,86.552 364.552,87 364,87L360.414,87L357.673,89.742C357.156,89.318 356.682,88.844 356.258,88.327Z"></path></g><defs><linearGradient id="_Linear1" x1="0" x2="1" y1="0" y2="0" gradientTransform="matrix(0 4 -4 0 352 120)" gradientUnits="userSpaceOnUse"><stop offset="0" stop-color="#d98550"></stop><stop offset="1" stop-color="#b36d42"></stop></linearGradient><linearGradient id="_Linear2" x1="0" x2="1" y1="0" y2="0" gradientTransform="matrix(0 11.9998 -11.9998 0 352.064 104)" gradientUnits="userSpaceOnUse"><stop offset="0" stop-color="#74b827"></stop><stop offset="1" stop-color="#649e21"></stop></linearGradient><linearGradient id="_Linear3" x1="0" x2="1" y1="0" y2="0" gradientTransform="matrix(0 16 -16 0 352 88)" gradientUnits="userSpaceOnUse"><stop offset="0" stop-color="#649e21"></stop><stop offset="1" stop-color="#4c7819"></stop></linearGradient><linearGradient id="_Linear4" x1="0" x2="1" y1="0" y2="0" gradientTransform="matrix(0 20 -20 0 334 68)" gradientUnits="userSpaceOnUse"><stop offset="0" stop-color="#74b827"></stop><stop offset="1" stop-color="#649e21"></stop></linearGradient><linearGradient id="_Linear5" x1="0" x2="1" y1="0" y2="0" gradientTransform="matrix(0 20 20 0 335 68)" gradientUnits="userSpaceOnUse"><stop offset="0" stop-color="#74b827"></stop><stop offset="1" stop-color="#649e21"></stop></linearGradient><linearGradient id="_Linear6" x1="0" x2="1" y1="0" y2="0" gradientTransform="matrix(0 12.7416 -12.7416 0 340 77)" gradientUnits="userSpaceOnUse"><stop offset="0" stop-color="#649e21"></stop><stop offset="1" stop-color="#4c7819"></stop></linearGradient><linearGradient id="_Linear7" x1="0" x2="1" y1="0" y2="0" gradientTransform="matrix(0 12.7416 -12.7416 0 364 77)" gradientUnits="userSpaceOnUse"><stop offset="0" stop-color="#649e21"></stop><stop offset="1" stop-color="#4c7819"></stop></linearGradient></defs></svg>