<svg width="50" height="50" viewBox="0 0 50 50" fill="none" xmlns="http://www.w3.org/2000/svg">
<path d="M18.2696 29.168H31.7311C36.3214 29.168 40.7237 30.7483 43.9695 33.5614C47.2153 36.3744 49.0388 40.1897 49.0388 44.168V49.168H0.961914V44.168C0.961914 40.1897 2.7854 36.3744 6.03122 33.5614C9.27704 30.7483 13.6793 29.168 18.2696 29.168Z" fill="#78909C"/>
<path d="M40.1387 31.0586C29.6254 43.0745 11.6282 45.6122 0.961914 45.9834V49.1652H49.0388V44.1652C49.0391 41.4911 48.2139 38.8657 46.649 36.5611C45.084 34.2565 42.8362 32.3567 40.1387 31.0586Z" fill="#546E7A"/>
<path d="M41.3465 12.5H8.65415C7.06102 12.5 5.76953 13.6193 5.76953 15C5.76953 16.3807 7.06102 17.5 8.65415 17.5H41.3465C42.9396 17.5 44.2311 16.3807 44.2311 15C44.2311 13.6193 42.9396 12.5 41.3465 12.5Z" fill="#78909C"/>
<path d="M41.3465 12.5H40.3849V13.3333C40.3849 13.7754 40.1823 14.1993 39.8217 14.5118C39.461 14.8244 38.9719 15 38.4618 15H5.76953C5.76953 15.663 6.07344 16.2989 6.61442 16.7678C7.15539 17.2366 7.8891 17.5 8.65415 17.5H41.3465C42.1115 17.5 42.8452 17.2366 43.3862 16.7678C43.9271 16.2989 44.2311 15.663 44.2311 15C44.2311 14.337 43.9271 13.7011 43.3862 13.2322C42.8452 12.7634 42.1115 12.5 41.3465 12.5Z" fill="#546E7A"/>
<path d="M19.2304 0.832031H30.7689C32.809 0.832031 34.7655 1.53441 36.2081 2.78465C37.6507 4.0349 38.4612 5.73059 38.4612 7.4987V12.4987H11.5381V7.4987C11.5381 5.73059 12.3485 4.0349 13.7911 2.78465C15.2337 1.53441 17.1903 0.832031 19.2304 0.832031Z" fill="#78909C"/>
<path d="M32.1998 0.953125C31.5648 2.61557 30.3416 4.06236 28.7038 5.08803C27.0661 6.11369 25.0971 6.66609 23.0765 6.66677H11.6045C11.5624 6.94309 11.5402 7.2214 11.5381 7.50011V12.5001H38.4612V7.50011C38.4605 5.94768 37.8347 4.44412 36.6916 3.24888C35.5485 2.05364 33.9599 1.24168 32.1998 0.953125Z" fill="#546E7A"/>
<path d="M12.5 26.668H37.5L25 45.8346L12.5 26.668Z" fill="#CFD8DC"/>
<path d="M19.7658 28.3331L25.0004 45.8331L4.80807 30.8331L9.61576 28.3331L0.961914 24.1664L12.5004 20.5664L19.7658 28.3331Z" fill="#78909C"/>
<path d="M13.5928 37.3571L25.0004 45.8313L19.7653 28.3313L16.1888 24.5078C17.1106 30.5984 15.8406 34.6542 13.5928 37.3571Z" fill="#546E7A"/>
<path d="M26.9227 29.1667H23.0765C20.0164 29.1667 17.0815 28.1131 14.9176 26.2377C12.7537 24.3624 11.5381 21.8188 11.5381 19.1667V17.5H38.4612V19.1667C38.4612 21.8188 37.2455 24.3624 35.0816 26.2377C32.9177 28.1131 29.9829 29.1667 26.9227 29.1667Z" fill="#FFE0B2"/>
<path d="M15.3848 17.5C15.3848 18.3841 15.79 19.2319 16.5113 19.857C17.2326 20.4821 18.2109 20.8333 19.2309 20.8333C20.251 20.8333 21.2293 20.4821 21.9506 19.857C22.6719 19.2319 23.0771 18.3841 23.0771 17.5H15.3848Z" fill="#546E7A"/>
<path d="M30.4846 27.4997L25 45.8331L45.1923 30.8331L40.3846 28.3331L49.0385 24.1664L37.5 20.5664L30.4846 27.4997Z" fill="#78909C"/>
<path d="M31.9459 17.5C29.9899 24.4019 24.4546 27.3313 18.5918 28.3825C20.0114 28.9017 21.537 29.1683 23.0778 29.1667H26.924C29.9842 29.1667 32.919 28.1131 35.0829 26.2377C37.2468 24.3624 38.4624 21.8188 38.4624 19.1667V17.5H31.9459Z" fill="#FFCC80"/>
<path d="M26.9229 17.5C26.9229 18.3841 27.3281 19.2319 28.0494 19.857C28.7707 20.4821 29.7489 20.8333 30.769 20.8333C31.7891 20.8333 32.7674 20.4821 33.4886 19.857C34.2099 19.2319 34.6152 18.3841 34.6152 17.5H26.9229Z" fill="#546E7A"/>
<path d="M38.4612 9.16797H11.5381V12.5013H38.4612V9.16797Z" fill="#E53935"/>
<path d="M49.0385 24.1688L41.4736 21.8086C39.0434 29.3143 33.0791 34.2049 27.5667 37.2553L25 45.8355L45.1923 30.8355L40.3846 28.3355L49.0385 24.1688Z" fill="#546E7A"/>
<path d="M44.2471 32.6331L45.8181 31.4661C45.9338 31.3801 46.0243 31.2716 46.082 31.1494C46.1398 31.0273 46.1633 30.895 46.1505 30.7634C46.1377 30.6318 46.089 30.5048 46.0085 30.3927C45.9279 30.2806 45.8178 30.1868 45.6871 30.1188L42.3067 28.361L49.5056 24.895C49.6669 24.8172 49.799 24.7008 49.8861 24.5597C49.9732 24.4187 50.0116 24.2588 49.9967 24.0993C49.9818 23.9399 49.9142 23.7875 49.8021 23.6604C49.6899 23.5333 49.5379 23.4368 49.3643 23.3825L39.3591 20.2611C39.4015 19.8974 39.4229 19.5322 39.4231 19.1667V18.3333H41.3461C42.3662 18.3333 43.3445 17.9821 44.0658 17.357C44.7871 16.7319 45.1923 15.8841 45.1923 15C45.1923 14.1159 44.7871 13.2681 44.0658 12.643C43.3445 12.0179 42.3662 11.6667 41.3461 11.6667H39.4231V7.5C39.4204 5.51158 38.5078 3.60527 36.8855 2.19925C35.2631 0.793227 33.0636 0.00230916 30.7692 0H19.2308C16.9364 0.00230916 14.7369 0.793227 13.1145 2.19925C11.4922 3.60527 10.5796 5.51158 10.5769 7.5V11.6667H8.65385C7.63378 11.6667 6.6555 12.0179 5.93421 12.643C5.21291 13.2681 4.80769 14.1159 4.80769 15C4.80769 15.8841 5.21291 16.7319 5.93421 17.357C6.6555 17.9821 7.63378 18.3333 8.65385 18.3333H10.5769V19.1667C10.5771 19.5322 10.5984 19.8974 10.6409 20.2611L0.635705 23.3826C0.462026 23.4368 0.310039 23.5333 0.197897 23.6604C0.0857551 23.7875 0.0181974 23.9399 0.003293 24.0994C-0.0116115 24.2588 0.026767 24.4187 0.113845 24.5598C0.200923 24.7008 0.33302 24.8172 0.494359 24.895L7.69327 28.361L4.31286 30.1188C4.18223 30.1868 4.07209 30.2806 3.99153 30.3927C3.91097 30.5048 3.86228 30.6318 3.84949 30.7634C3.8367 30.895 3.86016 31.0273 3.91795 31.1494C3.97574 31.2716 4.0662 31.3801 4.18187 31.4661L5.75393 32.6339C3.93615 34.1133 2.48767 35.8999 1.49801 37.8835C0.508342 39.8671 -0.00149215 42.0056 3.28025e-06 44.1667V49.1667C3.28025e-06 49.3877 0.101308 49.5996 0.281631 49.7559C0.461955 49.9122 0.706526 50 0.961542 50H49.0385C49.2935 50 49.538 49.9122 49.7184 49.7559C49.8987 49.5996 50 49.3877 50 49.1667V44.1667C50.0021 42.0054 49.4927 39.8668 48.5032 37.883C47.5137 35.8992 46.0651 34.1124 44.2471 32.6331ZM46.721 24.3294L39.9175 27.605C39.7699 27.676 39.6466 27.7794 39.5598 27.9049C39.473 28.0303 39.4259 28.1733 39.4231 28.3195C39.4203 28.4657 39.4619 28.61 39.5438 28.7379C39.6257 28.8657 39.7451 28.9726 39.8898 29.0479L43.5537 30.953L26.6991 43.4733L30.9006 29.4282C32.8606 28.8533 34.6259 27.8667 36.0389 26.5566C37.4519 25.2465 38.4686 23.6536 38.9983 21.92L46.721 24.3294ZM19.2308 21.6667C20.3385 21.6653 21.4119 21.3331 22.2699 20.7259C23.128 20.1187 23.7182 19.2737 23.9413 18.3333H26.0587C26.2803 19.2743 26.8702 20.1201 27.7286 20.7275C28.587 21.3349 29.6611 21.6667 30.7692 21.6667C31.8774 21.6667 32.9515 21.3349 33.8099 20.7275C34.6682 20.1201 35.2581 19.2743 35.4797 18.3333H37.5V19.1667C37.4968 21.597 36.3815 23.927 34.3986 25.6454C32.4157 27.3639 29.7273 28.3306 26.9231 28.3333H23.0769C20.2727 28.3306 17.5843 27.3639 15.6014 25.6454C13.6185 23.927 12.5032 21.597 12.5 19.1667V18.3333H14.5203C14.7433 19.2737 15.3336 20.1187 16.1916 20.7259C17.0497 21.3331 18.123 21.6653 19.2308 21.6667ZM16.511 18.3333H21.9506C21.7517 18.8208 21.3834 19.2428 20.8963 19.5412C20.4092 19.8397 19.8273 20 19.2308 20C18.6342 20 18.0524 19.8397 17.5653 19.5412C17.0782 19.2428 16.7098 18.8208 16.511 18.3333ZM28.0494 18.3333H33.489C33.2902 18.8208 32.9218 19.2428 32.4347 19.5412C31.9476 19.8397 31.3658 20 30.7692 20C30.1727 20 29.5908 19.8397 29.1037 19.5412C28.6166 19.2428 28.2483 18.8208 28.0494 18.3333ZM23.0769 30H26.9231C27.5461 29.9958 28.1679 29.9512 28.7832 29.8665L25 42.5134L21.2168 29.8665C21.8321 29.9512 22.4539 29.9958 23.0769 30ZM12.5 7.5C12.502 5.95344 13.2118 4.47071 14.4736 3.37713C15.7354 2.28354 17.4463 1.6684 19.2308 1.66667H30.7692C32.5537 1.6684 34.2646 2.28354 35.5264 3.37713C36.7882 4.47071 37.498 5.95344 37.5 7.5V8.33333H12.5V7.5ZM12.5 10H37.5V11.6667H12.5V10ZM8.65385 16.6667C8.14382 16.6667 7.65467 16.4911 7.29403 16.1785C6.93338 15.8659 6.73077 15.442 6.73077 15C6.73077 14.558 6.93338 14.134 7.29403 13.8215C7.65467 13.5089 8.14382 13.3333 8.65385 13.3333H41.3461C41.8562 13.3333 42.3453 13.5089 42.706 13.8215C43.0666 14.134 43.2692 14.558 43.2692 15C43.2692 15.442 43.0666 15.8659 42.706 16.1785C42.3453 16.4911 41.8562 16.6667 41.3461 16.6667H8.65385ZM10.1102 29.0479C10.2549 28.9726 10.3742 28.8657 10.4562 28.7379C10.5381 28.61 10.5797 28.4657 10.5769 28.3195C10.5741 28.1733 10.527 28.0303 10.4402 27.9048C10.3534 27.7794 10.23 27.676 10.0825 27.605L3.279 24.3294L11.0016 21.92C11.5314 23.6536 12.5481 25.2465 13.9611 26.5566C15.3741 27.8667 17.1394 28.8532 19.0994 29.4281L23.3009 43.4733L6.44625 30.953L10.1102 29.0479ZM48.0769 48.3333H1.92308V44.1667C1.92475 42.2036 2.39835 40.2623 3.31368 38.4667C4.22902 36.671 5.56601 35.0604 7.23943 33.7374L24.3742 46.4661C24.5485 46.5955 24.7704 46.6667 25 46.6667C25.2295 46.6667 25.4515 46.5955 25.6258 46.4661L42.7596 33.7381C44.4334 35.0608 45.7707 36.6712 46.6863 38.4668C47.6018 40.2624 48.0754 42.2036 48.0769 44.1667V48.3333Z" fill="#080633"/>
<path d="M5.11946 42.4986C5.05001 42.4987 4.98075 42.4922 4.91288 42.4795C4.66375 42.4321 4.44651 42.301 4.3089 42.1149C4.1713 41.9288 4.12459 41.703 4.17905 41.487C4.64864 39.6464 5.59133 37.9214 6.93689 36.4403C7.09508 36.2675 7.32585 36.1562 7.57861 36.1306C7.83138 36.1051 8.08553 36.1674 8.28536 36.304C8.48518 36.4405 8.61439 36.6402 8.64465 36.8592C8.67492 37.0781 8.60378 37.2986 8.44682 37.4722C7.28133 38.7551 6.46479 40.2493 6.05799 41.8435C6.01097 42.029 5.89233 42.195 5.72168 42.3142C5.55103 42.4333 5.33858 42.4984 5.11946 42.4986ZM4.80724 46.6653C4.55223 46.6653 4.30765 46.5775 4.12733 46.4212C3.94701 46.2649 3.8457 46.053 3.8457 45.832V44.9986C3.8457 44.7776 3.94701 44.5657 4.12733 44.4094C4.30765 44.2531 4.55223 44.1653 4.80724 44.1653C5.06226 44.1653 5.30683 44.2531 5.48715 44.4094C5.66747 44.5657 5.76878 44.7776 5.76878 44.9986V45.832C5.76878 46.053 5.66747 46.2649 5.48715 46.4212C5.30683 46.5775 5.06226 46.6653 4.80724 46.6653Z" fill="white"/>
<path d="M34.6158 6.66667C35.1469 6.66667 35.5774 6.29357 35.5774 5.83333C35.5774 5.3731 35.1469 5 34.6158 5C34.0848 5 33.6543 5.3731 33.6543 5.83333C33.6543 6.29357 34.0848 6.66667 34.6158 6.66667Z" fill="#080633"/>
<path d="M30.7692 6.66667C31.3002 6.66667 31.7307 6.29357 31.7307 5.83333C31.7307 5.3731 31.3002 5 30.7692 5C30.2381 5 29.8076 5.3731 29.8076 5.83333C29.8076 6.29357 30.2381 6.66667 30.7692 6.66667Z" fill="#080633"/>
<path d="M26.9235 6.66667C27.4545 6.66667 27.885 6.29357 27.885 5.83333C27.885 5.3731 27.4545 5 26.9235 5C26.3924 5 25.9619 5.3731 25.9619 5.83333C25.9619 6.29357 26.3924 6.66667 26.9235 6.66667Z" fill="#080633"/>
</svg>
