<svg width="50" height="50" viewBox="0 0 50 50" fill="none" xmlns="http://www.w3.org/2000/svg">
<path d="M44.5313 23.6875V49.2188H5.46875V23.6875C5.46811 22.8665 5.62922 22.0534 5.9429 21.2947C6.25657 20.536 6.71666 19.8465 7.29688 19.2656L9.89063 16.6875C10.4708 16.1066 10.9309 15.4172 11.2446 14.6584C11.5583 13.8997 11.7194 13.0866 11.7188 12.2656V3.90625C11.7212 3.07821 12.0513 2.28479 12.6368 1.69927C13.2223 1.11376 14.0157 0.783723 14.8438 0.78125H20.3125C21.757 1.71824 23.4506 2.19746 25.1719 2.15625C26.7431 2.10619 28.2712 1.631 29.5938 0.78125H35.1563C35.9843 0.783723 36.7777 1.11376 37.3632 1.69927C37.9487 2.28479 38.2788 3.07821 38.2813 3.90625V12.2656C38.2806 13.0866 38.4417 13.8997 38.7554 14.6584C39.0691 15.4172 39.5292 16.1066 40.1094 16.6875L42.7031 19.2656C43.2833 19.8465 43.7434 20.536 44.0571 21.2947C44.3708 22.0534 44.5319 22.8665 44.5313 23.6875Z" fill="#EE654A"/>
<path d="M44.5312 27.3438H25V32.0312H44.5312V27.3438Z" fill="#E0E0E2"/>
<path d="M44.5312 38.2812H25V42.9688H44.5312V38.2812Z" fill="#E0E0E2"/>
<path d="M25 27.3438H5.46875V32.0312H25V27.3438Z" fill="#E0E0E2"/>
<path d="M25 38.2812H5.46875V42.9688H25V38.2812Z" fill="#E0E0E2"/>
<path d="M31.9376 0.84375C31.9372 0.924163 31.9212 1.00374 31.8907 1.07812L25.7813 20.0469V49.2188H24.2188V20.0469L18.0782 1.01562C18.0462 0.941688 18.0302 0.861809 18.0313 0.78125H19.6407L25.0001 17.375L30.3438 0.78125H31.9219C31.9344 0.799584 31.9399 0.821725 31.9376 0.84375Z" fill="#E0E0E2"/>
<path d="M30.3438 0.78125L25 17.375L19.6406 0.78125H20.3125C21.757 1.71824 23.4506 2.19746 25.1719 2.15625C26.7431 2.10627 28.2713 1.63107 29.5938 0.78125H30.3438Z" fill="#F3947F"/>
</svg>
