<svg width="50" height="50" viewBox="0 0 50 50" fill="none" xmlns="http://www.w3.org/2000/svg">
<path d="M40.967 47.837H9.03223V42.9294C9.03223 41.3582 9.43564 39.7946 10.3036 38.4875C11.3022 36.9837 12.8066 35.8264 14.6435 35.31C14.7059 35.2891 14.7766 35.2723 14.8431 35.2556C15.4629 35.0927 17.0976 34.7083 17.5801 34.5077C19.4894 33.7138 20.8786 31.9296 21.1324 29.7861C21.1448 29.6983 21.1532 29.6106 21.1615 29.5228C21.2447 28.7415 21.2696 28.0186 21.1698 27.6133H28.8151C28.7069 28.0562 28.7485 28.8668 28.8442 29.7192C28.8483 29.7485 28.8525 29.7735 28.8567 29.8028C29.1062 31.7499 30.2875 33.413 31.9431 34.2904C32.5503 34.6122 34.522 35.0927 35.1418 35.2556C35.2041 35.2723 35.2624 35.2849 35.3248 35.3016C37.4741 35.9043 39.1688 37.3817 40.1331 39.2647C40.6994 40.3707 40.9478 41.6135 40.9512 42.8573L40.967 47.837Z" fill="#F45B96"/>
<path d="M24.9923 27.0117C24.9742 27.0117 24.9568 27.013 24.9387 27.0132C24.7983 27.0136 24.6626 27.0211 24.5244 27.025C23.2632 27.095 22.162 27.445 21.4355 27.9543V29.0658C22.5143 29.8035 23.7546 30.3536 25.1827 30.5109C26.5243 30.1616 27.6335 29.6839 28.5641 29.1347V27.9625C27.8389 27.4495 26.7347 27.0965 25.4689 27.0254C25.31 27.0209 25.1541 27.0117 24.9923 27.0117Z" fill="#E0AA93"/>
<path d="M24.9708 36.2293C27.3194 36.2293 29.2835 34.603 29.8116 32.4166C29.3109 31.6715 28.9733 30.8065 28.8532 29.8749C28.8491 29.8458 28.8449 29.8209 28.8407 29.7919C28.7647 29.1177 28.7243 28.4731 28.7648 28.0149C28.672 27.9059 28.5759 27.7998 28.4742 27.6992H21.4674C21.3796 27.786 21.2976 27.8782 21.2165 27.9712C21.2597 28.3866 21.2318 28.9713 21.1649 29.5967C21.1566 29.6839 21.1483 29.7711 21.1358 29.8583C21.0208 30.8248 20.6702 31.7163 20.1455 32.4772C20.6951 34.6329 22.6439 36.2293 24.9708 36.2293Z" fill="#F8CCB6"/>
<path d="M21.138 31.1488L21.1648 29.5977L28.5206 29.8011V31.1921C28.5206 33.2103 26.8845 34.8464 24.8663 34.8464H24.792C22.7569 34.8464 21.1138 33.1838 21.138 31.1488Z" fill="#F8CCB6"/>
<path d="M25.1831 31.2707C26.6581 30.889 27.8545 30.354 28.8382 29.7388C28.7443 28.9113 28.7048 28.1282 28.8121 27.6992H21.1742C21.2772 28.111 21.243 28.8511 21.1572 29.6413C22.2986 30.4724 23.6311 31.1008 25.1831 31.2707Z" fill="#E0AA93"/>
<path d="M32.0916 22.8265C32.0916 22.8265 32.2087 27.9482 25.304 29.5585C22.4372 29.2756 20.4167 27.3625 19.1723 25.6821C18.0606 24.181 17.572 22.376 17.6861 20.5747C18.1744 12.8683 23.24 11.5625 25.1437 11.5625C27.0474 11.5625 33.4932 12.6615 32.0916 22.8265Z" fill="#F8CCB6"/>
<path d="M20.0234 20.0453C20.0234 20.0453 21.4913 17.7813 23.7574 20.0453C23.7574 20.0453 22.0073 21.2036 20.0234 20.0453Z" fill="white"/>
<path d="M21.8899 20.5871C22.3243 20.5871 22.6764 20.2353 22.6764 19.8013C22.6764 19.3674 22.3243 19.0156 21.8899 19.0156C21.4556 19.0156 21.1035 19.3674 21.1035 19.8013C21.1035 20.2353 21.4556 20.5871 21.8899 20.5871Z" fill="#4D4C7C"/>
<path d="M21.2696 19.6212C21.3613 19.6212 21.4357 19.5469 21.4357 19.4551C21.4357 19.3634 21.3613 19.2891 21.2696 19.2891C21.1779 19.2891 21.1035 19.3634 21.1035 19.4551C21.1035 19.5469 21.1779 19.6212 21.2696 19.6212Z" fill="white"/>
<path d="M19.3594 19.646C19.3594 19.646 19.698 19.8386 20.0235 19.5946C20.0235 19.5946 22.4825 17.3603 23.8963 20.1596H23.6521C23.6521 20.1596 22.0243 17.6043 20.0235 20.0954C20.0235 20.0954 19.6164 20.1339 19.3594 19.646Z" fill="#474F5D"/>
<path d="M29.9351 20.0453C29.9351 20.0453 28.4672 17.7813 26.2012 20.0453C26.2012 20.0453 27.9512 21.2036 29.9351 20.0453Z" fill="white"/>
<path d="M28.0687 20.5871C28.503 20.5871 28.8551 20.2353 28.8551 19.8013C28.8551 19.3674 28.503 19.0156 28.0687 19.0156C27.6343 19.0156 27.2822 19.3674 27.2822 19.8013C27.2822 20.2353 27.6343 20.5871 28.0687 20.5871Z" fill="#4D4C7C"/>
<path d="M30.5994 19.646C30.5994 19.646 30.2608 19.8386 29.9353 19.5946C29.9353 19.5946 27.4763 17.3603 26.0625 20.1596H26.3067C26.3067 20.1596 27.9345 17.6043 29.9353 20.0954C29.9353 20.0954 30.3424 20.1339 30.5994 19.646Z" fill="#474F5D"/>
<path d="M27.4483 19.6212C27.54 19.6212 27.6144 19.5469 27.6144 19.4551C27.6144 19.3634 27.54 19.2891 27.4483 19.2891C27.3566 19.2891 27.2822 19.3634 27.2822 19.4551C27.2822 19.5469 27.3566 19.6212 27.4483 19.6212Z" fill="white"/>
<path d="M23.1104 24.8867C23.8716 26.8034 26.3811 26.6291 26.848 24.9152L23.1104 24.8867Z" fill="#F04C42"/>
<path d="M23.0967 24.8948C23.7408 24.8488 24.5003 23.687 24.9806 24.8948H24.9777C25.458 23.687 26.2175 24.8488 26.8616 24.8948C25.8476 25.5711 24.6163 25.6375 23.0967 24.8948Z" fill="#D22D27"/>
<path d="M23.4835 17.4448C23.4835 17.4448 23.4212 17.4545 23.3124 17.4715C23.2582 17.4818 23.1918 17.485 23.1127 17.4817C23.0335 17.4831 22.9433 17.4807 22.8497 17.46C22.6585 17.4322 22.4423 17.3675 22.2202 17.2844C21.998 17.2008 21.7719 17.0977 21.5418 17.0239C21.4278 16.9817 21.3122 16.958 21.1983 16.9342C21.084 16.9253 20.9715 16.9089 20.8629 16.9244C20.7529 16.9245 20.6521 16.9648 20.552 16.9833C20.4592 17.0254 20.3642 17.0537 20.2861 17.1006C20.2091 17.1492 20.1355 17.1904 20.0693 17.2273C20.0087 17.2723 19.9558 17.3116 19.9122 17.3439C19.8227 17.4081 19.7715 17.4448 19.7715 17.4448C19.7715 17.4448 19.8128 17.3973 19.885 17.3141C19.9563 17.2289 20.0668 17.1144 20.2247 17.0011C20.3015 16.9424 20.3995 16.8992 20.497 16.8422C20.6035 16.8081 20.7148 16.7493 20.8411 16.7429C20.9657 16.7202 21.0951 16.7245 21.2265 16.7358C21.3543 16.7591 21.4845 16.7839 21.6065 16.8268C22.0969 16.9961 22.5181 17.2543 22.8749 17.3464C23.0513 17.3964 23.1983 17.4293 23.3108 17.4314C23.4207 17.4399 23.4835 17.4448 23.4835 17.4448ZM26.2124 17.4448C26.2124 17.4448 26.2751 17.4399 26.385 17.4314C26.4975 17.4293 26.6445 17.3964 26.8209 17.3464C27.1777 17.2543 27.5989 16.9961 28.0893 16.8268C28.2113 16.7839 28.3415 16.7591 28.4693 16.7358C28.6007 16.7245 28.7301 16.7202 28.8548 16.7429C28.981 16.7493 29.0923 16.8081 29.1988 16.8422C29.2963 16.8992 29.3943 16.9424 29.4711 17.0011C29.629 17.1144 29.7395 17.2289 29.8108 17.3141C29.883 17.3973 29.9243 17.4448 29.9243 17.4448C29.9243 17.4448 29.8731 17.4081 29.7836 17.3439C29.74 17.3116 29.6872 17.2723 29.6265 17.2273C29.5603 17.1904 29.4867 17.1492 29.4097 17.1006C29.3316 17.0537 29.2366 17.0254 29.1438 16.9833C29.0437 16.9648 28.9429 16.9245 28.8329 16.9244C28.7243 16.9089 28.6118 16.9253 28.4975 16.9342C28.3836 16.958 28.268 16.9817 28.1541 17.0239C27.9239 17.0977 27.6978 17.2008 27.4757 17.2844C27.2535 17.3675 27.0374 17.4322 26.8461 17.46C26.7525 17.4807 26.6623 17.4831 26.5831 17.4817C26.504 17.485 26.4376 17.4818 26.3835 17.4715C26.2746 17.4545 26.2124 17.4448 26.2124 17.4448Z" fill="#474F5D"/>
<path d="M32.0914 22.8244C44.7618 2.83622 24.328 0.118726 22.6418 3.26254C10.5993 -0.137971 13.8318 22.0341 17.7308 22.0653C17.5882 19.0373 18.0448 17.3041 20.1458 15.7675C23.1907 13.5406 23.4836 11.9428 23.4836 11.9428C23.4836 11.9428 25.4308 12.8282 27.8969 13.2953C31.2445 13.9294 31.6564 18.6555 32.0914 22.8244Z" fill="#6C5768"/>
<path d="M25.9779 38.1394H24.0229L23.3086 36.2305H26.6922L25.9779 38.1394Z" fill="#1FBCBC"/>
<path d="M25.7731 38.1406H24.2256V47.8392H25.7731V38.1406Z" fill="#1FBCBC"/>
<path d="M24.9715 36.2286L22.8751 38.325L18.6426 34.0925L19.7208 31.9961L24.9715 36.2286Z" fill="white"/>
<path d="M24.9707 36.2286L27.0671 38.325L31.3 34.0925L30.2214 31.9961L24.9707 36.2286Z" fill="white"/>
</svg>
