<svg width="50" height="50" viewBox="0 0 50 50" fill="none" xmlns="http://www.w3.org/2000/svg">
<path d="M17.5293 3.66406H20.7521V11.9648H17.5293V3.66406ZM29.248 3.66406H32.4708V11.9648H29.248V3.66406Z" fill="#E4222E"/>
<path d="M25 12.6953C24.8057 12.6953 24.6195 12.6181 24.4821 12.4808C24.3447 12.3434 24.2676 12.1571 24.2676 11.9629V8.93555C24.2676 8.7413 24.3447 8.555 24.4821 8.41765C24.6195 8.28029 24.8057 8.20312 25 8.20312C25.1943 8.20312 25.3805 8.28029 25.5179 8.41765C25.6553 8.555 25.7324 8.7413 25.7324 8.93555V11.9629C25.7324 12.1571 25.6553 12.3434 25.5179 12.4808C25.3805 12.6181 25.1943 12.6953 25 12.6953Z" fill="#FDDD5A"/>
<path d="M26.8373 9.17188H23.1621C22.9679 9.17188 22.7816 9.09471 22.6442 8.95735C22.5069 8.82 22.4297 8.6337 22.4297 8.43945C22.4297 8.2452 22.5069 8.05891 22.6442 7.92155C22.7816 7.7842 22.9679 7.70703 23.1621 7.70703H26.8373C27.0316 7.70703 27.2178 7.7842 27.3552 7.92155C27.4926 8.05891 27.5697 8.2452 27.5697 8.43945C27.5697 8.6337 27.4926 8.82 27.3552 8.95735C27.2178 9.09471 27.0316 9.17188 26.8373 9.17188Z" fill="#FDDD5A"/>
<path d="M35.4004 43.75V46.3379C35.4004 47.1149 35.0917 47.8601 34.5423 48.4095C33.9929 48.9589 33.2477 49.2676 32.4707 49.2676H17.5293C16.7523 49.2676 16.0071 48.9589 15.4577 48.4095C14.9083 47.8601 14.5996 47.1149 14.5996 46.3379V43.75" fill="#E4222E"/>
<path d="M31.0059 43.75V46.3379C31.0059 47.1149 30.6972 47.8601 30.1478 48.4095C29.5984 48.9589 28.8532 49.2676 28.0762 49.2676H32.4707C33.2477 49.2676 33.9929 48.9589 34.5423 48.4095C35.0917 47.8601 35.4004 47.1149 35.4004 46.3379V43.75H31.0059Z" fill="#C0232C"/>
<path d="M32.4219 11.9609H17.5781C14.3421 11.9609 11.7188 14.5843 11.7188 17.8203V38.6211C11.7188 41.8571 14.3421 44.4805 17.5781 44.4805H32.4219C35.6579 44.4805 38.2812 41.8571 38.2812 38.6211V17.8203C38.2812 14.5843 35.6579 11.9609 32.4219 11.9609Z" fill="#EB304A"/>
<path d="M32.4219 11.9609H28.0273C29.5813 11.9609 31.0717 12.5783 32.1705 13.6771C33.2694 14.776 33.8867 16.2663 33.8867 17.8203V38.6211C33.8867 40.1751 33.2694 41.6655 32.1705 42.7643C31.0717 43.8631 29.5813 44.4805 28.0273 44.4805H32.4219C33.9759 44.4805 35.4662 43.8631 36.5651 42.7643C37.6639 41.6655 38.2812 40.1751 38.2812 38.6211V17.8203C38.2812 16.2663 37.6639 14.776 36.5651 13.6771C35.4662 12.5783 33.9759 11.9609 32.4219 11.9609Z" fill="#E4222E"/>
<path d="M33.7891 0.734375H16.2109C15.4019 0.734375 14.7461 1.39021 14.7461 2.19922C14.7461 3.00823 15.4019 3.66406 16.2109 3.66406H33.7891C34.5981 3.66406 35.2539 3.00823 35.2539 2.19922C35.2539 1.39021 34.5981 0.734375 33.7891 0.734375Z" fill="#EB304A"/>
<path d="M33.7891 0.734375H29.3945C29.783 0.734375 30.1556 0.888706 30.4303 1.16342C30.705 1.43813 30.8594 1.81072 30.8594 2.19922C30.8594 2.58772 30.705 2.96031 30.4303 3.23502C30.1556 3.50973 29.783 3.66406 29.3945 3.66406H33.7891C34.1776 3.66406 34.5502 3.50973 34.8249 3.23502C35.0996 2.96031 35.2539 2.58772 35.2539 2.19922C35.2539 1.81072 35.0996 1.43813 34.8249 1.16342C34.5502 0.888706 34.1776 0.734375 33.7891 0.734375Z" fill="#E4222E"/>
<path d="M26.6825 35.9486C24.1545 37.0865 20.8671 35.7962 19.811 33.2109C19.1146 31.5061 19.7511 29.7025 19.8001 29.575C20.404 28.0035 21.5184 27.7176 22.0846 26.0998C22.475 24.9842 22.3618 23.9295 22.2177 23.2396C22.6928 23.695 23.0976 24.2184 23.4188 24.7927C23.6387 25.178 23.8312 25.5782 23.995 25.9905C24.076 26.2025 24.1418 26.42 24.1919 26.6413C24.237 26.8438 24.22 27.0516 24.2671 27.2504C24.4123 27.8633 25.0054 26.8913 25.1068 26.7229C25.389 26.2658 25.5578 25.7478 25.599 25.2122C25.6417 24.5832 25.5184 23.954 25.2416 23.3875C25.2025 23.3078 25.0144 22.8713 24.9244 22.8633C25.3744 22.9027 25.8172 23.0015 26.2413 23.157C28.8239 24.1092 30.8192 27.3021 30.5089 30.5221C30.2909 32.784 28.7456 35.0201 26.6825 35.9486Z" fill="#FDDD5A"/>
<path d="M22.0843 26.0998C21.9245 26.5592 21.6858 26.9872 21.3789 27.3645C21.5717 27.7161 22.0832 26.8782 22.1768 26.723C22.459 26.2658 22.6277 25.7478 22.6689 25.2122C22.7116 24.5832 22.5885 23.954 22.3117 23.3875C22.3029 23.3695 22.2862 23.3328 22.265 23.2876C22.249 23.2717 22.2335 23.2554 22.2174 23.2397C22.3615 23.9295 22.4747 24.9842 22.0843 26.0998ZM26.241 23.157C25.8169 23.0015 25.3741 22.9027 24.9241 22.8633C25.014 22.8713 25.2023 23.3078 25.2414 23.3875C25.3351 23.579 25.4115 23.7785 25.4696 23.9836C25.5395 24.2297 25.583 24.4826 25.5995 24.7379C26.953 26.2056 27.7876 28.3571 27.5789 30.5221C27.3609 32.784 25.8156 35.0201 23.7525 35.9486C23.5763 36.0275 23.3953 36.0951 23.2105 36.1513C24.3481 36.4782 25.5865 36.4419 26.6822 35.9486C28.7453 35.0201 30.2906 32.784 30.5086 30.5221C30.8189 27.3021 28.8236 24.1093 26.241 23.157Z" fill="#FED030"/>
<path d="M27.3584 33.5761C27.2992 34.4509 26.8367 36.0438 25.5186 36.35C24.1898 36.6586 22.6978 35.5341 22.6368 34.4762C22.5924 33.7093 23.3028 33.0236 23.4754 32.8569C24.1375 32.2179 24.6195 32.304 24.9855 31.7783C25.2099 31.4561 25.3969 30.8891 25.1046 29.832C26.5689 30.6797 27.4572 32.1191 27.3584 33.576V33.5761Z" fill="#F9A242"/>
<path d="M25.1046 29.832C25.2794 30.4644 25.2821 30.9202 25.2086 31.2543C25.6949 31.9275 25.9366 32.7467 25.8936 33.5761C25.8382 34.3938 25.4303 35.8388 24.3008 36.274C24.6919 36.4113 25.1134 36.4377 25.5186 36.3502C26.8366 36.0439 27.2991 34.451 27.3584 33.5761C27.457 32.1192 26.5688 30.6796 25.1046 29.832Z" fill="#F69531"/>
<path d="M46.7646 44.9727C46.8035 44.9727 46.8408 44.9572 46.8682 44.9297C46.8957 44.9023 46.9111 44.865 46.9111 44.8262C46.9111 44.7873 46.8957 44.7501 46.8682 44.7226C46.8408 44.6951 46.8035 44.6797 46.7646 44.6797C46.7258 44.6797 46.6885 44.6951 46.6611 44.7226C46.6336 44.7501 46.6182 44.7873 46.6182 44.8262C46.6182 44.865 46.6336 44.9023 46.6611 44.9297C46.6885 44.9572 46.7258 44.9727 46.7646 44.9727Z" fill="black"/>
</svg>
