<svg xmlns="http://www.w3.org/2000/svg" data-name="Layer 1" viewBox="0 0 512 512" id="notes"><path fill="#00efd1" d="M428.89,130.05V463.28a37.2,37.2,0,0,1-37.21,37.2H120.32a37.2,37.2,0,0,1-37.21-37.2V130.05a37.211,37.211,0,0,1,37.21-37.21H179.4v40.78H332.6V92.84h59.08A37.211,37.211,0,0,1,428.89,130.05Z"></path><path fill="#00acea" d="M332.6,92.84v40.78H179.4V77.13a22.538,22.538,0,0,1,22.54-22.54H310.06A22.538,22.538,0,0,1,332.6,77.13Z"></path><path fill="#00efd1" d="M290.11,53.68v.91H221.89V45.62a34.11,34.11,0,1,1,68.22,0Z"></path><path fill="#00acea" d="M253.63 370.54H148.53a8 8 0 0 1 0-16h105.1a8 8 0 1 1 0 16zM363.47 425.98H148.53a8 8 0 1 1 0-16H363.47a8 8 0 0 1 0 16z"></path><polygon fill="#fedb41" points="347.16 200.48 233.49 314.15 164.84 244.83 187.58 222.31 233.6 268.78 324.53 177.85 347.16 200.48"></polygon></svg>