<svg xmlns="http://www.w3.org/2000/svg" viewBox="0 0 32 32" id="setting"><defs><linearGradient id="a" x1="16" x2="16" y1="30.43" y2="1.66" gradientUnits="userSpaceOnUse"><stop offset="0" stop-color="#12c2e9"></stop><stop offset="1" stop-color="#c471ed"></stop></linearGradient></defs><path fill="url(#a)" d="m30.11 19.66.42-2.95-3.15-1.57a9.1 9.1 0 0 0-.18-1.29l2.58-2.38-1.24-2.71-3.54.39a10.4 10.4 0 0 0-.84-1l.87-3.4-2.5-1.61-2.69 2.22A11.69 11.69 0 0 0 18.59 5l-1.1-3.32h-3L13.41 5a11.69 11.69 0 0 0-1.25.38L9.43 3.15l-2.5 1.61.87 3.4a10.4 10.4 0 0 0-.84 1l-3.5-.39-1.24 2.7 2.58 2.38a9.1 9.1 0 0 0-.18 1.29l-3.15 1.57.42 2.95 3.46.61a10 10 0 0 0 .54 1.19l-1.8 3 2 2.25 3.25-1.35c.36.26.73.5 1.09.71l.12 3.51 2.85.84 2-2.89a9.4 9.4 0 0 0 1.3 0l2 2.89 2.85-.84.12-3.51c.36-.21.73-.45 1.09-.71L26 26.72l1.95-2.25-1.8-3a10 10 0 0 0 .54-1.19Zm-7.57-8.58a13.69 13.69 0 0 0-3.21 1.26l-.25.15a4.58 4.58 0 0 0-1.59-.91 2.72 2.72 0 0 0 0-.28A13.62 13.62 0 0 0 17 7.87v-.13A8.43 8.43 0 0 1 22.72 11ZM15 7.87a13.61 13.61 0 0 0-.51 3.42v.29a4.58 4.58 0 0 0-1.59.91 2 2 0 0 0-.25-.14 13.33 13.33 0 0 0-3.21-1.27h-.18a8.43 8.43 0 0 1 5.77-3.3Zm-6.68 4.77.15.15a13.08 13.08 0 0 0 2.7 2.15l.26.14a3.9 3.9 0 0 0 0 1.84l-.25.13a13.52 13.52 0 0 0-2.71 2.16l-.23.23a8.35 8.35 0 0 1-.68-3.32 8.46 8.46 0 0 1 .76-3.48Zm1.14 8.28a13.53 13.53 0 0 0 3.21-1.26l.25-.15a4.58 4.58 0 0 0 1.59.91 2.81 2.81 0 0 0 0 .29 13.61 13.61 0 0 0 .49 3.42l.1.37h1.78l.1-.37a13.61 13.61 0 0 0 .51-3.42v-.29a4.58 4.58 0 0 0 1.59-.91l.24.14a13.39 13.39 0 0 0 3.22 1.27l.33.09A8.42 8.42 0 0 1 9.13 21Zm14.3-1.48-.23-.23a13.35 13.35 0 0 0-2.7-2.15l-.26-.14a3.9 3.9 0 0 0 0-1.84l.25-.13a13.24 13.24 0 0 0 2.71-2.16l.15-.15a8.46 8.46 0 0 1 .76 3.48 8.35 8.35 0 0 1-.68 3.32Z" data-name="Gear 17"></path></svg>