<svg xmlns="http://www.w3.org/2000/svg" viewBox="0 0 96 96" id="cctv"><rect width="8.43" height="68.91" x=".03" y="27.16" fill="#e6e7e8"></rect><path fill="#83a5da" d="M45.69,67.63h-23V61.86H45.64a3,3,0,0,0-1,2.25C44.65,65.47,44.5,66.59,45.69,67.63Z"></path><path fill="#5b87b7" d="M45.64,61.86H42.72a1.87,1.87,0,0,0-1.87,1.87v2a1.87,1.87,0,0,0,1.87,1.87h3a3,3,0,0,1-1-2.3C44.65,64,44.5,62.89,45.64,61.86Z"></path><path fill="#83a5da" d="M82.87,9.28V25.73A3.26,3.26,0,0,1,79.61,29H31.72a6.14,6.14,0,0,1-6.14-6.1V12.16A6.14,6.14,0,0,1,31.72,6H79.61A3.27,3.27,0,0,1,82.87,9.28Z"></path><path fill="#97cdff" d="M67.53,22.87a2,2,0,0,1-2,2H31.72a2.06,2.06,0,0,1-2-2H49l4.73-7.62H67.53Z"></path><path fill="#6078bc" d="M82.76,8.45,79,15.27H53.76L49,22.89H25.58V12.16A6.14,6.14,0,0,1,31.72,6H79.61A3.26,3.26,0,0,1,82.76,8.45Z"></path><path fill="#4764b2" d="M76.6,6h3.08A3.19,3.19,0,0,1,82.87,9.2V25.8A3.19,3.19,0,0,1,79.68,29H76.6a6,6,0,0,1-6-6V12a6,6,0,0,1,6-6Z"></path><path fill="#47aafd" d="M82.87,9.28V16a3.25,3.25,0,0,1-3.26,3.25H76.74A6.15,6.15,0,0,1,71,15.27a7.42,7.42,0,0,1-.41-3.11A6.14,6.14,0,0,1,76.74,6c2.57,0,3.5-.15,4.51.44A3.32,3.32,0,0,1,82.87,9.28Z"></path><path fill="#474ba3" d="M82.76,8.45l-3,5.48a2.59,2.59,0,0,1-2.26,1.34H71a7.42,7.42,0,0,1-.41-3.11A6.14,6.14,0,0,1,76.74,6a16.73,16.73,0,0,1,3.76.13A3.27,3.27,0,0,1,82.76,8.45Z"></path><path fill="#ff6b6b" d="M85.69,12h.89a1.15,1.15,0,0,1,1.15,1.15v8.68A1.15,1.15,0,0,1,86.58,23h-.89a2.82,2.82,0,0,1-2.82-2.82V14.83A2.82,2.82,0,0,1,85.69,12Z" transform="rotate(-180 85.3 17.505)"></path><path fill="#474180" d="M83.87,0,77.22,12.2H52.05l-4.72,7.62H19.66v-14A5.79,5.79,0,0,1,25.43,0Z"></path><polygon fill="#475f99" points="44.21 12.2 52.05 12.2 47.33 19.82 39.48 19.82 44.21 12.2"></polygon><polygon fill="#475f99" points="83.88 0 77.22 12.2 69.37 12.2 76.03 0 83.88 0"></polygon><path fill="#3d2d71" d="M39.51,0a5.78,5.78,0,0,0-5.76,5.77V19.82H19.66v-14A5.79,5.79,0,0,1,25.43,0Z"></path><rect width="24.37" height="1.96" x="44.3" y="3.14" fill="#fff" rx=".98"></rect><path fill="#4764b2" d="M24.78,13.71v-7a1.65,1.65,0,0,1,1.64-1.64H73.59a1,1,0,0,1,.87,1.46,1,1,0,0,1-.87.51H49.76a1,1,0,0,0-.84.47l-4.15,6.67a1,1,0,0,1-.84.47H25.77A1,1,0,0,1,24.78,13.71Z"></path><path fill="#47aafd" d="M39.72,5.12H26.42a1.65,1.65,0,0,0-1.64,1.64v7a1,1,0,0,0,1,1H35.9A1.41,1.41,0,0,0,37.12,14l3.82-6.78A1.4,1.4,0,0,0,39.72,5.12Z"></path><path fill="#3d2d71" d="M52.05 12.2l-1.27 2.05H37.71a1 1 0 010-2.05zM72.55 6.58H71.3a1 1 0 110-2h1.25a1 1 0 010 2zM65.85 6.58H64.6a1 1 0 110-2h1.25a1 1 0 010 2zM59.15 6.58H57.9a1 1 0 110-2h1.25a1 1 0 110 2z"></path><path fill="#6078bc" d="M67.39,29H63.22a9,9,0,0,1-3-6.74,1,1,0,0,1,2.05,0A7,7,0,0,0,67.39,29Z"></path><path fill="#474180" d="M42.12,29H63.74a0,0,0,0,1,0,0V31.9a2.93,2.93,0,0,1-2.93,2.93H45.05a2.93,2.93,0,0,1-2.93-2.93V29A0,0,0,0,1,42.12,29Z"></path><path fill="#302d3d" d="M43.15,30v1.83a2,2,0,0,0,2,2H60.74a2,2,0,0,0,2-2V30Z"></path><path fill="#5669c1" d="M42.12,29H55.27a0,0,0,0,1,0,0V31.9a2.93,2.93,0,0,1-2.93,2.93H45.05a2.93,2.93,0,0,1-2.93-2.93V29A0,0,0,0,1,42.12,29Z"></path><path fill="#56aff3" d="M46.56,31.86a.81.81,0,0,0,.8.8H51a.8.8,0,1,0,0-1.6H47.36A.8.8,0,0,0,46.56,31.86Z"></path><rect width="5.44" height="26.21" x="50.21" y="34.83" fill="#83a5da"></rect><rect width="5.44" height="11.29" x="50.21" y="44.47" fill="#b0d7f3"></rect><rect width="1.75" height="11.04" x="52.1" y="43.6" fill="#fff" rx=".87"></rect><rect width="5.44" height="4.25" x="50.21" y="34.83" fill="#516ead"></rect><path fill="#83a5da" d="M50.21 68.4h5.44v4.06a2.27 2.27 0 01-2.27 2.27h-.9a2.27 2.27 0 01-2.27-2.27zM61.21 64.11v1.22a3.06 3.06 0 01-3.06 3.07H47.71a3.09 3.09 0 01-2-.77c-1.22-1.06-1-2.32-1-3.52A3.07 3.07 0 0147.71 61H58.15A3.07 3.07 0 0161.21 64.11z"></path><rect width="5.62" height="7.35" x="50.21" y="61.04" fill="#b0d7f3" rx="1.42"></rect><rect width="8.05" height="2.89" x="48.95" y="63.28" fill="#fff" rx="1.44"></rect><path fill="#4764b2" d="M8.46,52.13h10a4.27,4.27,0,0,1,4.27,4.27V73.05a4.27,4.27,0,0,1-4.27,4.27h-10a0,0,0,0,1,0,0V52.13A0,0,0,0,1,8.46,52.13Z"></path><path fill="#4791da" d="M11,56.94h9.08A1.27,1.27,0,0,1,21.4,58.2v6.86a0,0,0,0,1,0,0H9.78a0,0,0,0,1,0,0V58.2A1.27,1.27,0,0,1,11,56.94Z" transform="rotate(90 15.59 61)"></path><path fill="#2e378a" d="M22.72,65.14V73a4.36,4.36,0,0,1-4.35,4.37H8.46V69.5h9.91A4.36,4.36,0,0,0,22.72,65.14Z"></path><path fill="#47aafd" d="M78.65,24.9H75.2a1.15,1.15,0,0,1,0-2.3h3.45a1.15,1.15,0,0,1,0,2.3Z"></path></svg>