<?xml version="1.0" encoding="UTF-8" standalone="no"?>
<!DOCTYPE svg PUBLIC "-//W3C//DTD SVG 1.1//EN" "http://www.w3.org/Graphics/SVG/1.1/DTD/svg11.dtd">
<svg xmlns="http://www.w3.org/2000/svg" version="1.1" viewBox="0.00 0.00 94.00 94.00">
<g stroke-width="2.00" fill="none" stroke-linecap="butt">
<path stroke="#acb8c5" vector-effect="non-scaling-stroke" d="
  M 75.48 7.24
  C 74.52 8.04 73.13 8.40 71.32 8.31
  C 71.03 8.30 70.86 8.43 70.81 8.71
  C 70.62 9.68 70.20 10.48 69.53 11.12
  C 68.44 12.15 67.88 12.69 67.85 12.74
  C 64.80 16.72 61.60 20.57 58.24 24.29
  C 57.52 25.09 56.46 25.46 55.84 26.62
  C 55.70 26.88 55.50 27.08 55.24 27.23
  C 54.02 27.93 53.43 29.22 53.46 31.11"
/>
<path stroke="#9ca6b1" vector-effect="non-scaling-stroke" d="
  M 53.46 31.11
  C 52.88 31.42 52.44 31.79 52.13 32.24"
/>
<path stroke="#acb8c5" vector-effect="non-scaling-stroke" d="
  M 52.13 32.24
  L 46.57 37.97"
/>
<path stroke="#d58a75" vector-effect="non-scaling-stroke" d="
  M 46.57 37.97
  C 46.24 38.04 45.99 38.15 45.82 38.32"
/>
<path stroke="#dab393" vector-effect="non-scaling-stroke" d="
  M 45.82 38.32
  C 45.47 38.28 45.18 38.15 44.96 37.94"
/>
<path stroke="#f77939" vector-effect="non-scaling-stroke" d="
  M 45.82 38.32
  C 45.41 38.67 45.08 39.07 44.84 39.54
  C 44.77 39.67 44.80 39.76 44.93 39.82
  L 47.40 41.05
  C 47.92 41.31 47.96 41.64 47.53 42.03
  L 44.66 44.65
  C 44.32 44.96 43.96 44.98 43.59 44.71
  L 41.73 43.36
  C 41.47 43.18 41.23 43.20 41.00 43.41
  L 33.96 49.96"
/>
<path stroke="#dab393" vector-effect="non-scaling-stroke" d="
  M 33.96 49.96
  C 33.82 49.57 33.68 49.40 33.53 49.44"
/>
<path stroke="#909aa8" vector-effect="non-scaling-stroke" d="
  M 67.43 24.57
  C 65.16 27.88 62.58 30.67 59.70 32.95
  C 58.76 33.70 58.08 34.68 57.65 35.89
  C 57.52 36.27 57.32 36.31 57.05 36.01
  C 55.82 34.63 54.70 33.16 53.68 31.61
  C 53.63 31.53 53.63 31.45 53.67 31.37
  C 53.72 31.30 53.77 31.23 53.83 31.17
  C 53.86 31.14 53.85 31.12 53.82 31.10
  C 53.43 30.95 53.31 30.96 53.46 31.11"
/>
<path stroke="#6e7682" vector-effect="non-scaling-stroke" d="
  M 88.01 19.99
  C 85.10 22.08 82.34 24.51 79.72 27.27
  C 77.97 29.11 75.35 30.04 73.75 32.01
  C 72.21 33.90 70.91 35.37 69.86 36.40
  C 69.05 37.20 67.70 37.63 66.94 38.82
  C 66.77 39.09 66.55 39.31 66.30 39.50
  L 63.65 41.40"
/>
<path stroke="#61636b" vector-effect="non-scaling-stroke" d="
  M 63.65 41.40
  L 57.60 36.94
  C 57.38 36.77 57.08 36.74 56.82 36.86
  C 56.29 37.10 56.18 37.38 56.48 37.69"
/>
<path stroke="#6e7682" vector-effect="non-scaling-stroke" d="
  M 56.48 37.69
  L 55.50 35.96
  C 55.31 35.64 55.20 35.66 55.15 36.03
  C 54.76 38.88 53.48 41.20 51.31 43.00"
/>
<path stroke="#ba7878" vector-effect="non-scaling-stroke" d="
  M 51.31 43.00
  C 50.68 42.35 49.95 41.86 49.11 41.55"
/>
<path stroke="#b96d58" vector-effect="non-scaling-stroke" d="
  M 49.11 41.55
  L 48.68 40.61"
/>
<path stroke="#909aa8" vector-effect="non-scaling-stroke" d="
  M 48.68 40.61
  C 51.01 38.78 52.42 36.24 52.93 32.99
  C 52.97 32.72 52.86 32.53 52.60 32.42
  L 52.13 32.24"
/>
<path stroke="#c97f6b" vector-effect="non-scaling-stroke" d="
  M 48.68 40.61
  C 47.70 39.75 47.00 38.87 46.57 37.97"
/>
<path stroke="#f35c3b" vector-effect="non-scaling-stroke" d="
  M 49.11 41.55
  C 49.15 41.94 48.95 42.49 48.63 42.79
  C 46.71 44.58 44.83 46.47 43.00 48.46
  C 42.89 48.58 42.89 48.76 43.00 48.88
  C 43.11 49.00 43.29 49.01 43.42 48.91
  L 45.19 47.52
  C 45.45 47.31 45.70 47.33 45.93 47.56
  L 59.11 60.47"
/>
<path stroke="#ea3f1b" vector-effect="non-scaling-stroke" d="
  M 59.11 60.47
  C 57.20 59.78 55.61 58.70 54.32 57.21
  C 54.16 57.02 53.96 56.96 53.72 57.03
  C 52.37 57.41 51.17 57.24 50.12 56.51
  C 46.89 54.26 43.90 52.62 41.13 51.60
  C 41.02 51.57 40.94 51.50 40.89 51.41
  L 40.63 51.01
  C 40.52 50.84 40.39 50.83 40.25 50.98
  L 39.06 52.31
  C 38.91 52.47 38.76 52.47 38.61 52.31
  C 38.40 52.09 37.87 52.12 37.03 52.41"
/>
<path stroke="#9d4f37" vector-effect="non-scaling-stroke" d="
  M 37.03 52.41
  L 35.68 51.78"
/>
<path stroke="#a75a45" vector-effect="non-scaling-stroke" d="
  M 35.68 51.78
  C 35.64 51.61 35.48 51.43 35.20 51.24"
/>
<path stroke="#b96d58" vector-effect="non-scaling-stroke" d="
  M 35.20 51.24
  L 33.90 50.30"
/>
<path stroke="#d58a75" vector-effect="non-scaling-stroke" d="
  M 33.90 50.30
  C 33.92 50.19 33.94 50.07 33.96 49.96"
/>
<path stroke="#9ca6b1" vector-effect="non-scaling-stroke" d="
  M 33.90 50.30
  L 31.32 52.95"
/>
<path stroke="#acb8c5" vector-effect="non-scaling-stroke" d="
  M 31.32 52.95
  C 26.30 58.03 21.33 63.07 16.40 68.06
  C 15.19 69.30 14.78 70.68 14.27 72.26
  C 14.19 72.50 13.86 72.51 13.76 72.28
  C 13.63 72.00 13.61 71.66 13.68 71.26"
/>
<path stroke="#909aa8" vector-effect="non-scaling-stroke" d="
  M 12.51 18.35
  C 11.06 17.30 11.22 17.84 13.00 19.97"
/>
<path stroke="#909aa8" vector-effect="non-scaling-stroke" d="
  M 31.25 33.71
  C 32.07 34.30 32.76 34.29 33.33 33.70"
/>
<path stroke="#be9576" vector-effect="non-scaling-stroke" d="
  M 41.71 40.95
  C 41.44 41.00 41.24 41.13 41.11 41.34"
/>
<path stroke="#61636b" vector-effect="non-scaling-stroke" d="
  M 41.11 41.34
  C 39.38 42.16 38.42 42.22 38.22 41.52"
/>
<path stroke="#646a74" vector-effect="non-scaling-stroke" d="
  M 38.22 41.52
  C 34.25 37.84 30.14 34.38 25.89 31.14
  C 25.40 30.77 24.66 30.07 23.66 29.03
  C 22.94 28.28 22.13 27.65 21.24 27.13
  C 19.07 25.88 16.25 23.87 13.32 23.43"
/>
<path stroke="#9f704d" stroke-opacity="0.996" vector-effect="non-scaling-stroke" d="
  M 41.11 41.34
  L 37.37 45.30"
/>
<path stroke="#f38589" vector-effect="non-scaling-stroke" d="
  M 58.26 50.04
  C 63.31 56.60 68.90 62.52 75.04 67.80
  C 75.20 67.94 75.30 67.90 75.35 67.69
  C 75.37 67.62 75.38 67.53 75.39 67.43"
/>
<path stroke="#eb4a3b" vector-effect="non-scaling-stroke" d="
  M 76.37 68.95
  C 76.14 69.16 76.14 69.50 76.36 69.97
  C 76.48 70.23 76.52 70.50 76.48 70.78
  C 76.25 72.40 75.42 72.93 73.99 72.38
  C 69.39 70.59 66.39 66.67 62.44 63.53
  C 61.23 62.57 60.12 61.55 59.11 60.47"
/>
<path stroke="#9a707c" vector-effect="non-scaling-stroke" d="
  M 58.19 49.98
  C 58.22 50.00 58.24 50.02 58.26 50.04"
/>
<path stroke="#9b534f" stroke-opacity="0.996" vector-effect="non-scaling-stroke" d="
  M 58.26 50.04
  L 55.35 47.13"
/>
<path stroke="#4f5159" stroke-opacity="0.996" vector-effect="non-scaling-stroke" d="
  M 56.48 37.69
  C 58.87 41.12 58.50 44.27 55.35 47.13"
/>
<path stroke="#a86666" stroke-opacity="0.996" vector-effect="non-scaling-stroke" d="
  M 55.35 47.13
  L 51.31 43.00"
/>
<path stroke="#525862" stroke-opacity="0.996" vector-effect="non-scaling-stroke" d="
  M 89.11 23.11
  C 87.66 25.61 85.93 27.92 83.90 30.05
  C 82.48 31.53 80.59 33.56 78.24 36.13
  C 76.47 38.06 74.51 39.77 72.34 41.28
  C 71.48 41.89 70.52 42.22 69.46 42.27
  C 68.39 42.33 67.34 42.35 66.29 42.34"
/>
<path stroke="#4f5159" stroke-opacity="0.996" vector-effect="non-scaling-stroke" d="
  M 66.29 42.34
  L 63.65 41.40"
/>
<path stroke="#6e7682" vector-effect="non-scaling-stroke" d="
  M 35.20 51.24
  C 34.92 53.96 35.94 56.32 35.83 58.78
  C 35.77 60.19 35.67 61.63 35.54 63.09
  C 35.51 63.41 35.40 63.70 35.19 63.95
  L 29.48 70.88
  C 29.33 71.06 29.15 71.16 28.92 71.17
  C 28.15 71.21 27.78 71.74 27.83 72.75
  C 27.92 74.62 27.76 75.84 27.37 76.43"
/>
<path stroke="#9ca6b1" vector-effect="non-scaling-stroke" d="
  M 27.37 76.43
  C 27.22 76.16 27.21 75.84 27.32 75.45
  C 29.41 68.11 18.62 64.93 17.30 73.13
  C 16.29 79.33 22.29 80.02 26.62 77.06"
/>
<path stroke="#6e7682" vector-effect="non-scaling-stroke" d="
  M 26.62 77.06
  C 26.41 77.60 26.16 77.95 25.87 78.12
  C 21.74 80.42 18.00 80.19 14.64 77.43"
/>
<path stroke="#909aa8" vector-effect="non-scaling-stroke" d="
  M 14.33 77.01
  C 14.42 76.92 14.58 76.87 14.81 76.86
  C 15.08 76.84 15.19 76.70 15.16 76.44
  C 14.46 70.37 17.03 67.02 22.88 66.39
  C 23.21 66.36 23.51 66.23 23.76 66.01
  C 27.00 63.18 29.65 59.97 31.72 56.40
  C 32.05 55.83 32.21 55.26 32.21 54.67
  C 32.22 53.38 31.92 52.80 31.32 52.95"
/>
<path stroke="#45454b" stroke-opacity="0.996" vector-effect="non-scaling-stroke" d="
  M 40.66 56.83
  C 42.01 61.29 41.64 64.72 39.57 67.12
  C 38.06 68.86 36.51 70.55 34.92 72.18
  C 31.65 75.53 28.39 78.71 25.14 81.72"
/>
<path stroke="#525862" stroke-opacity="0.996" vector-effect="non-scaling-stroke" d="
  M 35.68 51.78
  C 37.70 56.44 38.31 60.43 37.51 63.74
  C 36.58 67.63 34.38 69.22 31.93 71.74
  C 31.37 72.33 30.46 73.50 29.21 75.27
  C 27.01 78.37 23.98 80.52 20.13 81.73"
/>
<path stroke="#8a949f" vector-effect="non-scaling-stroke" d="
  M 26.62 77.06
  C 26.67 76.79 26.92 76.58 27.37 76.43"
/>
<path stroke="#d0241b" vector-effect="non-scaling-stroke" d="
  M 77.52 71.23
  C 76.51 73.22 74.49 74.20 72.67 72.66
  C 72.39 72.42 72.06 72.26 71.69 72.17
  C 71.63 72.15 71.58 72.22 71.61 72.27
  L 71.73 72.50
  C 71.91 72.85 72.20 73.03 72.59 73.05
  C 73.33 73.08 73.87 73.41 74.20 74.03
  C 74.36 74.34 74.27 74.47 73.92 74.42
  C 71.51 74.12 69.49 75.12 67.38 74.74
  C 64.29 74.19 61.25 72.90 58.25 70.86
  C 53.95 67.93 50.54 65.28 48.01 62.91
  C 47.83 62.74 47.65 62.64 47.47 62.62
  C 47.22 62.59 47.00 62.64 46.83 62.77"
/>
<path stroke="#92352e" vector-effect="non-scaling-stroke" d="
  M 46.01 62.11
  L 40.66 56.83"
/>
<path stroke="#953c37" vector-effect="non-scaling-stroke" d="
  M 40.66 56.83
  L 37.03 52.41"
/>
<path stroke="#9ca6b1" vector-effect="non-scaling-stroke" d="
  M 39.48 38.91
  L 33.33 33.70"
/>
<path stroke="#acb8c5" vector-effect="non-scaling-stroke" d="
  M 33.33 33.70
  C 32.44 32.65 31.40 32.08 30.23 32.01
  C 29.76 31.98 29.69 32.14 30.02 32.48
  L 31.25 33.71"
/>
<path stroke="#9ca6b1" vector-effect="non-scaling-stroke" d="
  M 31.25 33.71
  C 31.35 33.96 31.52 34.18 31.77 34.39
  C 31.92 34.52 31.90 34.60 31.71 34.64
  C 31.47 34.69 31.32 34.60 31.27 34.37
  C 31.22 34.16 31.10 33.99 30.91 33.88
  C 30.06 33.39 29.20 32.53 28.32 31.28
  C 27.27 29.79 25.52 28.10 23.08 26.21
  C 21.33 24.86 19.20 24.31 17.19 23.23
  C 15.55 22.35 12.87 21.16 10.97 19.61
  C 10.87 19.53 10.88 19.52 11.01 19.59
  L 18.10 23.33
  C 18.49 23.54 18.56 23.46 18.31 23.10
  C 18.13 22.83 17.99 22.67 17.88 22.61
  C 16.35 21.77 14.73 20.89 13.00 19.97"
/>
<path stroke="#acb8c5" vector-effect="non-scaling-stroke" d="
  M 13.00 19.97
  L 14.05 20.03
  C 14.15 20.04 14.24 19.97 14.26 19.87
  C 14.29 19.77 14.23 19.67 14.14 19.63
  C 13.41 19.32 12.86 18.90 12.51 18.35"
/>
<path stroke="#9ca6b1" vector-effect="non-scaling-stroke" d="
  M 12.51 18.35
  C 13.35 18.50 14.08 18.85 14.69 19.38
  C 14.89 19.55 15.11 19.68 15.36 19.77
  C 15.53 19.83 15.72 19.92 15.93 20.04
  C 15.95 20.05 15.97 20.05 15.98 20.03
  C 16.00 20.02 15.99 19.99 15.98 19.98
  L 15.54 19.54
  C 15.34 19.34 15.11 19.19 14.84 19.09
  C 12.95 18.40 11.38 17.24 10.14 15.61
  C 9.81 15.18 8.93 14.47 7.48 13.50"
/>
<path stroke="#45454b" stroke-opacity="0.996" vector-effect="non-scaling-stroke" d="
  M 38.22 41.52
  C 34.56 39.90 30.86 37.67 27.11 34.83"
/>
<path stroke="#45454b" stroke-opacity="0.996" vector-effect="non-scaling-stroke" d="
  M 66.76 43.07
  C 66.81 42.78 66.65 42.54 66.29 42.34"
/>
<path stroke="#819ec5" vector-effect="non-scaling-stroke" d="
  M 25.78 73.44
  C 25.78 71.51 24.21 69.94 22.28 69.94
  C 20.35 69.94 18.78 71.51 18.78 73.44
  C 18.78 75.37 20.35 76.94 22.28 76.94
  C 24.21 76.94 25.78 75.37 25.78 73.44"
/>
</g>
<path fill="#b8c3ce" d="
  M 75.48 7.24
  C 74.52 8.04 73.13 8.40 71.32 8.31
  C 71.03 8.30 70.86 8.43 70.81 8.71
  C 70.62 9.68 70.20 10.48 69.53 11.12
  C 68.44 12.15 67.88 12.69 67.85 12.74
  C 64.80 16.72 61.60 20.57 58.24 24.29
  C 57.52 25.09 56.46 25.46 55.84 26.62
  C 55.70 26.88 55.50 27.08 55.24 27.23
  C 54.02 27.93 53.43 29.22 53.46 31.11
  C 52.88 31.42 52.44 31.79 52.13 32.24
  L 46.57 37.97
  C 46.24 38.04 45.99 38.15 45.82 38.32
  C 45.47 38.28 45.18 38.15 44.96 37.94
  L 52.52 30.37
  C 52.74 30.15 52.84 29.82 52.78 29.51
  C 50.03 15.59 61.37 3.70 75.48 7.24
  Z"
/>
<path fill="#a0acbb" d="
  M 75.48 7.24
  C 76.11 8.37 75.96 9.39 75.05 10.30
  C 71.27 14.07 64.86 18.42 67.43 24.57
  C 65.16 27.88 62.58 30.67 59.70 32.95
  C 58.76 33.70 58.08 34.68 57.65 35.89
  C 57.52 36.27 57.32 36.31 57.05 36.01
  C 55.82 34.63 54.70 33.16 53.68 31.61
  C 53.63 31.53 53.63 31.45 53.67 31.37
  C 53.72 31.30 53.77 31.23 53.83 31.17
  C 53.86 31.14 53.85 31.12 53.82 31.10
  C 53.43 30.95 53.31 30.96 53.46 31.11
  C 53.43 29.22 54.02 27.93 55.24 27.23
  C 55.50 27.08 55.70 26.88 55.84 26.62
  C 56.46 25.46 57.52 25.09 58.24 24.29
  C 61.60 20.57 64.80 16.72 67.85 12.74
  C 67.88 12.69 68.44 12.15 69.53 11.12
  C 70.20 10.48 70.62 9.68 70.81 8.71
  C 70.86 8.43 71.03 8.30 71.32 8.31
  C 73.13 8.40 74.52 8.04 75.48 7.24
  Z"
/>
<path fill="#b8c3ce" d="
  M 39.48 38.91
  L 33.33 33.70
  C 32.44 32.65 31.40 32.08 30.23 32.01
  C 29.76 31.98 29.69 32.14 30.02 32.48
  L 31.25 33.71
  C 31.35 33.96 31.52 34.18 31.77 34.39
  C 31.92 34.52 31.90 34.60 31.71 34.64
  C 31.47 34.69 31.32 34.60 31.27 34.37
  C 31.22 34.16 31.10 33.99 30.91 33.88
  C 30.06 33.39 29.20 32.53 28.32 31.28
  C 27.27 29.79 25.52 28.10 23.08 26.21
  C 21.33 24.86 19.20 24.31 17.19 23.23
  C 15.55 22.35 12.87 21.16 10.97 19.61
  C 10.87 19.53 10.88 19.52 11.01 19.59
  L 18.10 23.33
  C 18.49 23.54 18.56 23.46 18.31 23.10
  C 18.13 22.83 17.99 22.67 17.88 22.61
  C 16.35 21.77 14.73 20.89 13.00 19.97
  L 14.05 20.03
  C 14.15 20.04 14.24 19.97 14.26 19.87
  C 14.29 19.77 14.23 19.67 14.14 19.63
  C 13.41 19.32 12.86 18.90 12.51 18.35
  C 13.35 18.50 14.08 18.85 14.69 19.38
  C 14.89 19.55 15.11 19.68 15.36 19.77
  C 15.53 19.83 15.72 19.92 15.93 20.04
  C 15.95 20.05 15.97 20.05 15.98 20.03
  C 16.00 20.02 15.99 19.99 15.98 19.98
  L 15.54 19.54
  C 15.34 19.34 15.11 19.19 14.84 19.09
  C 12.95 18.40 11.38 17.24 10.14 15.61
  C 9.81 15.18 8.93 14.47 7.48 13.50
  L 10.03 10.89
  C 10.27 10.65 10.54 10.60 10.85 10.74
  C 13.38 11.87 15.74 13.25 17.93 14.88
  C 21.11 17.27 22.50 22.28 25.31 24.93
  C 30.08 29.43 34.81 34.09 39.48 38.91
  Z"
/>
<path fill="#808894" d="
  M 7.48 13.50
  C 8.93 14.47 9.81 15.18 10.14 15.61
  C 11.38 17.24 12.95 18.40 14.84 19.09
  C 15.11 19.19 15.34 19.34 15.54 19.54
  L 15.98 19.98
  C 15.99 19.99 16.00 20.02 15.98 20.03
  C 15.97 20.05 15.95 20.05 15.93 20.04
  C 15.72 19.92 15.53 19.83 15.36 19.77
  C 15.11 19.68 14.89 19.55 14.69 19.38
  C 14.08 18.85 13.35 18.50 12.51 18.35
  C 11.06 17.30 11.22 17.84 13.00 19.97
  C 14.73 20.89 16.35 21.77 17.88 22.61
  C 17.99 22.67 18.13 22.83 18.31 23.10
  C 18.56 23.46 18.49 23.54 18.10 23.33
  L 11.01 19.59
  C 10.88 19.52 10.87 19.53 10.97 19.61
  C 12.87 21.16 15.55 22.35 17.19 23.23
  C 19.20 24.31 21.33 24.86 23.08 26.21
  C 25.52 28.10 27.27 29.79 28.32 31.28
  C 29.20 32.53 30.06 33.39 30.91 33.88
  C 31.10 33.99 31.22 34.16 31.27 34.37
  C 31.32 34.60 31.47 34.69 31.71 34.64
  C 31.90 34.60 31.92 34.52 31.77 34.39
  C 31.52 34.18 31.35 33.96 31.25 33.71
  C 32.07 34.30 32.76 34.29 33.33 33.70
  L 39.48 38.91
  L 41.71 40.95
  C 41.44 41.00 41.24 41.13 41.11 41.34
  C 39.38 42.16 38.42 42.22 38.22 41.52
  C 34.25 37.84 30.14 34.38 25.89 31.14
  C 25.40 30.77 24.66 30.07 23.66 29.03
  C 22.94 28.28 22.13 27.65 21.24 27.13
  C 19.07 25.88 16.25 23.87 13.32 23.43
  C 10.76 21.26 8.69 18.34 7.10 14.67
  C 6.84 14.07 6.97 13.68 7.48 13.50
  Z"
/>
<path fill="#a0acbb" d="
  M 12.51 18.35
  C 12.86 18.90 13.41 19.32 14.14 19.63
  C 14.23 19.67 14.29 19.77 14.26 19.87
  C 14.24 19.97 14.15 20.04 14.05 20.03
  L 13.00 19.97
  C 11.22 17.84 11.06 17.30 12.51 18.35
  Z"
/>
<path fill="#808894" d="
  M 88.01 19.99
  C 85.10 22.08 82.34 24.51 79.72 27.27
  C 77.97 29.11 75.35 30.04 73.75 32.01
  C 72.21 33.90 70.91 35.37 69.86 36.40
  C 69.05 37.20 67.70 37.63 66.94 38.82
  C 66.77 39.09 66.55 39.31 66.30 39.50
  L 63.65 41.40
  L 57.60 36.94
  C 57.38 36.77 57.08 36.74 56.82 36.86
  C 56.29 37.10 56.18 37.38 56.48 37.69
  L 55.50 35.96
  C 55.31 35.64 55.20 35.66 55.15 36.03
  C 54.76 38.88 53.48 41.20 51.31 43.00
  C 50.68 42.35 49.95 41.86 49.11 41.55
  L 48.68 40.61
  C 51.01 38.78 52.42 36.24 52.93 32.99
  C 52.97 32.72 52.86 32.53 52.60 32.42
  L 52.13 32.24
  C 52.44 31.79 52.88 31.42 53.46 31.11
  C 53.31 30.96 53.43 30.95 53.82 31.10
  C 53.85 31.12 53.86 31.14 53.83 31.17
  C 53.77 31.23 53.72 31.30 53.67 31.37
  C 53.63 31.45 53.63 31.53 53.68 31.61
  C 54.70 33.16 55.82 34.63 57.05 36.01
  C 57.32 36.31 57.52 36.27 57.65 35.89
  C 58.08 34.68 58.76 33.70 59.70 32.95
  C 62.58 30.67 65.16 27.88 67.43 24.57
  C 69.58 28.00 72.28 29.36 75.52 28.67
  C 79.00 27.92 82.13 23.66 84.77 21.05
  C 85.90 19.94 86.98 19.58 88.01 19.99
  Z"
/>
<path fill="#5c646f" fill-opacity="0.996" d="
  M 88.01 19.99
  C 88.74 20.84 89.11 21.88 89.11 23.11
  C 87.66 25.61 85.93 27.92 83.90 30.05
  C 82.48 31.53 80.59 33.56 78.24 36.13
  C 76.47 38.06 74.51 39.77 72.34 41.28
  C 71.48 41.89 70.52 42.22 69.46 42.27
  C 68.39 42.33 67.34 42.35 66.29 42.34
  L 63.65 41.40
  L 66.30 39.50
  C 66.55 39.31 66.77 39.09 66.94 38.82
  C 67.70 37.63 69.05 37.20 69.86 36.40
  C 70.91 35.37 72.21 33.90 73.75 32.01
  C 75.35 30.04 77.97 29.11 79.72 27.27
  C 82.34 24.51 85.10 22.08 88.01 19.99
  Z"
/>
<path fill="#484c54" fill-opacity="0.996" d="
  M 89.11 23.11
  C 89.95 35.92 79.36 45.25 66.76 43.07
  C 66.81 42.78 66.65 42.54 66.29 42.34
  C 67.34 42.35 68.39 42.33 69.46 42.27
  C 70.52 42.22 71.48 41.89 72.34 41.28
  C 74.51 39.77 76.47 38.06 78.24 36.13
  C 80.59 33.56 82.48 31.53 83.90 30.05
  C 85.93 27.92 87.66 25.61 89.11 23.11
  Z"
/>
<path fill="#484c54" fill-opacity="0.996" d="
  M 13.32 23.43
  C 16.25 23.87 19.07 25.88 21.24 27.13
  C 22.13 27.65 22.94 28.28 23.66 29.03
  C 24.66 30.07 25.40 30.77 25.89 31.14
  C 30.14 34.38 34.25 37.84 38.22 41.52
  C 34.56 39.90 30.86 37.67 27.11 34.83
  C 23.26 30.26 18.67 26.46 13.32 23.43
  Z"
/>
<path fill="#a0acbb" d="
  M 33.33 33.70
  C 32.76 34.29 32.07 34.30 31.25 33.71
  L 30.02 32.48
  C 29.69 32.14 29.76 31.98 30.23 32.01
  C 31.40 32.08 32.44 32.65 33.33 33.70
  Z"
/>
<path fill="#a0acbb" d="
  M 52.13 32.24
  L 52.60 32.42
  C 52.86 32.53 52.97 32.72 52.93 32.99
  C 52.42 36.24 51.01 38.78 48.68 40.61
  C 47.70 39.75 47.00 38.87 46.57 37.97
  L 52.13 32.24
  Z"
/>
<path fill="#423e42" fill-opacity="0.996" d="
  M 27.11 34.83
  C 30.86 37.67 34.56 39.90 38.22 41.52
  C 38.42 42.22 39.38 42.16 41.11 41.34
  L 37.37 45.30
  L 27.11 34.83
  Z"
/>
<path fill="#5c646f" fill-opacity="0.996" d="
  M 56.48 37.69
  C 58.87 41.12 58.50 44.27 55.35 47.13
  L 51.31 43.00
  C 53.48 41.20 54.76 38.88 55.15 36.03
  C 55.20 35.66 55.31 35.64 55.50 35.96
  L 56.48 37.69
  Z"
/>
<path fill="#423e42" fill-opacity="0.996" d="
  M 63.65 41.40
  L 66.29 42.34
  C 66.65 42.54 66.81 42.78 66.76 43.07
  L 66.09 42.81
  C 65.74 42.67 65.44 42.73 65.18 43.00
  L 58.19 49.98
  C 58.22 50.00 58.24 50.02 58.26 50.04
  L 55.35 47.13
  C 58.50 44.27 58.87 41.12 56.48 37.69
  C 56.18 37.38 56.29 37.10 56.82 36.86
  C 57.08 36.74 57.38 36.77 57.60 36.94
  L 63.65 41.40
  Z"
/>
<path fill="#fca257" fill-opacity="0.996" d="
  M 44.96 37.94
  C 45.18 38.15 45.47 38.28 45.82 38.32
  C 45.41 38.67 45.08 39.07 44.84 39.54
  C 44.77 39.67 44.80 39.76 44.93 39.82
  L 47.40 41.05
  C 47.92 41.31 47.96 41.64 47.53 42.03
  L 44.66 44.65
  C 44.32 44.96 43.96 44.98 43.59 44.71
  L 41.73 43.36
  C 41.47 43.18 41.23 43.20 41.00 43.41
  L 33.96 49.96
  C 33.82 49.57 33.68 49.40 33.53 49.44
  L 37.37 45.30
  L 41.11 41.34
  C 41.24 41.13 41.44 41.00 41.71 40.95
  L 44.96 37.94
  Z"
/>
<path fill="#f2511b" d="
  M 46.57 37.97
  C 47.00 38.87 47.70 39.75 48.68 40.61
  L 49.11 41.55
  C 49.15 41.94 48.95 42.49 48.63 42.79
  C 46.71 44.58 44.83 46.47 43.00 48.46
  C 42.89 48.58 42.89 48.76 43.00 48.88
  C 43.11 49.00 43.29 49.01 43.42 48.91
  L 45.19 47.52
  C 45.45 47.31 45.70 47.33 45.93 47.56
  L 59.11 60.47
  C 57.20 59.78 55.61 58.70 54.32 57.21
  C 54.16 57.02 53.96 56.96 53.72 57.03
  C 52.37 57.41 51.17 57.24 50.12 56.51
  C 46.89 54.26 43.90 52.62 41.13 51.60
  C 41.02 51.57 40.94 51.50 40.89 51.41
  L 40.63 51.01
  C 40.52 50.84 40.39 50.83 40.25 50.98
  L 39.06 52.31
  C 38.91 52.47 38.76 52.47 38.61 52.31
  C 38.40 52.09 37.87 52.12 37.03 52.41
  L 35.68 51.78
  C 35.64 51.61 35.48 51.43 35.20 51.24
  L 33.90 50.30
  C 33.92 50.19 33.94 50.07 33.96 49.96
  L 41.00 43.41
  C 41.23 43.20 41.47 43.18 41.73 43.36
  L 43.59 44.71
  C 43.96 44.98 44.32 44.96 44.66 44.65
  L 47.53 42.03
  C 47.96 41.64 47.92 41.31 47.40 41.05
  L 44.93 39.82
  C 44.80 39.76 44.77 39.67 44.84 39.54
  C 45.08 39.07 45.41 38.67 45.82 38.32
  C 45.99 38.15 46.24 38.04 46.57 37.97
  Z"
/>
<path fill="#f4685c" fill-opacity="0.996" d="
  M 49.11 41.55
  C 49.95 41.86 50.68 42.35 51.31 43.00
  L 55.35 47.13
  L 58.26 50.04
  C 63.31 56.60 68.90 62.52 75.04 67.80
  C 75.20 67.94 75.30 67.90 75.35 67.69
  C 75.37 67.62 75.38 67.53 75.39 67.43
  L 76.37 68.95
  C 76.14 69.16 76.14 69.50 76.36 69.97
  C 76.48 70.23 76.52 70.50 76.48 70.78
  C 76.25 72.40 75.42 72.93 73.99 72.38
  C 69.39 70.59 66.39 66.67 62.44 63.53
  C 61.23 62.57 60.12 61.55 59.11 60.47
  L 45.93 47.56
  C 45.70 47.33 45.45 47.31 45.19 47.52
  L 43.42 48.91
  C 43.29 49.01 43.11 49.00 43.00 48.88
  C 42.89 48.76 42.89 48.58 43.00 48.46
  C 44.83 46.47 46.71 44.58 48.63 42.79
  C 48.95 42.49 49.15 41.94 49.11 41.55
  Z"
/>
<path fill="#b8c3ce" d="
  M 33.53 49.44
  C 33.68 49.40 33.82 49.57 33.96 49.96
  C 33.94 50.07 33.92 50.19 33.90 50.30
  L 31.32 52.95
  C 26.30 58.03 21.33 63.07 16.40 68.06
  C 15.19 69.30 14.78 70.68 14.27 72.26
  C 14.19 72.50 13.86 72.51 13.76 72.28
  C 13.63 72.00 13.61 71.66 13.68 71.26
  C 13.99 69.81 14.41 68.80 14.94 68.23
  C 18.53 64.30 24.72 58.04 33.53 49.44
  Z"
/>
<path fill="#f2a2b5" d="
  M 58.26 50.04
  C 58.24 50.02 58.22 50.00 58.19 49.98
  L 75.39 67.43
  C 75.38 67.53 75.37 67.62 75.35 67.69
  C 75.30 67.90 75.20 67.94 75.04 67.80
  C 68.90 62.52 63.31 56.60 58.26 50.04
  Z"
/>
<path fill="#808894" d="
  M 33.90 50.30
  L 35.20 51.24
  C 34.92 53.96 35.94 56.32 35.83 58.78
  C 35.77 60.19 35.67 61.63 35.54 63.09
  C 35.51 63.41 35.40 63.70 35.19 63.95
  L 29.48 70.88
  C 29.33 71.06 29.15 71.16 28.92 71.17
  C 28.15 71.21 27.78 71.74 27.83 72.75
  C 27.92 74.62 27.76 75.84 27.37 76.43
  C 27.22 76.16 27.21 75.84 27.32 75.45
  C 29.41 68.11 18.62 64.93 17.30 73.13
  C 16.29 79.33 22.29 80.02 26.62 77.06
  C 26.41 77.60 26.16 77.95 25.87 78.12
  C 21.74 80.42 18.00 80.19 14.64 77.43
  C 14.49 77.37 14.38 77.23 14.33 77.01
  C 14.42 76.92 14.58 76.87 14.81 76.86
  C 15.08 76.84 15.19 76.70 15.16 76.44
  C 14.46 70.37 17.03 67.02 22.88 66.39
  C 23.21 66.36 23.51 66.23 23.76 66.01
  C 27.00 63.18 29.65 59.97 31.72 56.40
  C 32.05 55.83 32.21 55.26 32.21 54.67
  C 32.22 53.38 31.92 52.80 31.32 52.95
  L 33.90 50.30
  Z"
/>
<path fill="#e22c1b" d="
  M 59.11 60.47
  C 60.12 61.55 61.23 62.57 62.44 63.53
  C 66.39 66.67 69.39 70.59 73.99 72.38
  C 75.42 72.93 76.25 72.40 76.48 70.78
  C 76.52 70.50 76.48 70.23 76.36 69.97
  C 76.14 69.50 76.14 69.16 76.37 68.95
  L 77.52 71.23
  C 76.51 73.22 74.49 74.20 72.67 72.66
  C 72.39 72.42 72.06 72.26 71.69 72.17
  C 71.63 72.15 71.58 72.22 71.61 72.27
  L 71.73 72.50
  C 71.91 72.85 72.20 73.03 72.59 73.05
  C 73.33 73.08 73.87 73.41 74.20 74.03
  C 74.36 74.34 74.27 74.47 73.92 74.42
  C 71.51 74.12 69.49 75.12 67.38 74.74
  C 64.29 74.19 61.25 72.90 58.25 70.86
  C 53.95 67.93 50.54 65.28 48.01 62.91
  C 47.83 62.74 47.65 62.64 47.47 62.62
  C 47.22 62.59 47.00 62.64 46.83 62.77
  L 46.01 62.11
  L 40.66 56.83
  L 37.03 52.41
  C 37.87 52.12 38.40 52.09 38.61 52.31
  C 38.76 52.47 38.91 52.47 39.06 52.31
  L 40.25 50.98
  C 40.39 50.83 40.52 50.84 40.63 51.01
  L 40.89 51.41
  C 40.94 51.50 41.02 51.57 41.13 51.60
  C 43.90 52.62 46.89 54.26 50.12 56.51
  C 51.17 57.24 52.37 57.41 53.72 57.03
  C 53.96 56.96 54.16 57.02 54.32 57.21
  C 55.61 58.70 57.20 59.78 59.11 60.47
  Z"
/>
<path fill="#5c646f" fill-opacity="0.996" d="
  M 35.20 51.24
  C 35.48 51.43 35.64 51.61 35.68 51.78
  C 37.70 56.44 38.31 60.43 37.51 63.74
  C 36.58 67.63 34.38 69.22 31.93 71.74
  C 31.37 72.33 30.46 73.50 29.21 75.27
  C 27.01 78.37 23.98 80.52 20.13 81.73
  C 17.68 81.24 15.85 79.81 14.64 77.43
  C 18.00 80.19 21.74 80.42 25.87 78.12
  C 26.16 77.95 26.41 77.60 26.62 77.06
  C 26.67 76.79 26.92 76.58 27.37 76.43
  C 27.76 75.84 27.92 74.62 27.83 72.75
  C 27.78 71.74 28.15 71.21 28.92 71.17
  C 29.15 71.16 29.33 71.06 29.48 70.88
  L 35.19 63.95
  C 35.40 63.70 35.51 63.41 35.54 63.09
  C 35.67 61.63 35.77 60.19 35.83 58.78
  C 35.94 56.32 34.92 53.96 35.20 51.24
  Z"
/>
<path fill="#484c54" fill-opacity="0.996" d="
  M 35.68 51.78
  L 37.03 52.41
  L 40.66 56.83
  C 42.01 61.29 41.64 64.72 39.57 67.12
  C 38.06 68.86 36.51 70.55 34.92 72.18
  C 31.65 75.53 28.39 78.71 25.14 81.72
  C 23.27 82.26 21.60 82.26 20.13 81.73
  C 23.98 80.52 27.01 78.37 29.21 75.27
  C 30.46 73.50 31.37 72.33 31.93 71.74
  C 34.38 69.22 36.58 67.63 37.51 63.74
  C 38.31 60.43 37.70 56.44 35.68 51.78
  Z"
/>
<path fill="#a0acbb" d="
  M 31.32 52.95
  C 31.92 52.80 32.22 53.38 32.21 54.67
  C 32.21 55.26 32.05 55.83 31.72 56.40
  C 29.65 59.97 27.00 63.18 23.76 66.01
  C 23.51 66.23 23.21 66.36 22.88 66.39
  C 17.03 67.02 14.46 70.37 15.16 76.44
  C 15.19 76.70 15.08 76.84 14.81 76.86
  C 14.58 76.87 14.42 76.92 14.33 77.01
  C 13.46 75.28 13.24 73.37 13.68 71.26
  C 13.61 71.66 13.63 72.00 13.76 72.28
  C 13.86 72.51 14.19 72.50 14.27 72.26
  C 14.78 70.68 15.19 69.30 16.40 68.06
  C 21.33 63.07 26.30 58.03 31.32 52.95
  Z"
/>
<path fill="#423e42" fill-opacity="0.996" d="
  M 40.66 56.83
  L 46.01 62.11
  C 40.15 67.99 34.29 73.84 28.42 79.67
  C 27.40 80.68 26.31 81.37 25.14 81.72
  C 28.39 78.71 31.65 75.53 34.92 72.18
  C 36.51 70.55 38.06 68.86 39.57 67.12
  C 41.64 64.72 42.01 61.29 40.66 56.83
  Z"
/>
<path fill="#be1c1c" fill-opacity="0.996" d="
  M 46.83 62.77
  C 47.00 62.64 47.22 62.59 47.47 62.62
  C 47.65 62.64 47.83 62.74 48.01 62.91
  C 50.54 65.28 53.95 67.93 58.25 70.86
  C 61.25 72.90 64.29 74.19 67.38 74.74
  C 69.49 75.12 71.51 74.12 73.92 74.42
  C 74.27 74.47 74.36 74.34 74.20 74.03
  C 73.87 73.41 73.33 73.08 72.59 73.05
  C 72.20 73.03 71.91 72.85 71.73 72.50
  L 71.61 72.27
  C 71.58 72.22 71.63 72.15 71.69 72.17
  C 72.06 72.26 72.39 72.42 72.67 72.66
  C 74.49 74.20 76.51 73.22 77.52 71.23
  C 79.87 77.19 73.09 83.15 67.72 81.48
  C 65.89 80.91 63.43 79.17 60.34 76.24
  C 55.73 71.87 51.22 67.38 46.83 62.77
  Z"
/>
<path fill="#b8c3ce" d="
  M 27.37 76.43
  C 26.92 76.58 26.67 76.79 26.62 77.06
  C 22.29 80.02 16.29 79.33 17.30 73.13
  C 18.62 64.93 29.41 68.11 27.32 75.45
  C 27.21 75.84 27.22 76.16 27.37 76.43
  Z
  M 25.78 73.44
  C 25.78 71.51 24.21 69.94 22.28 69.94
  C 20.35 69.94 18.78 71.51 18.78 73.44
  C 18.78 75.37 20.35 76.94 22.28 76.94
  C 24.21 76.94 25.78 75.37 25.78 73.44
  Z"
/>
<circle fill="#4a79bb" cx="22.28" cy="73.44" r="3.50"/>
</svg>
