<svg xmlns="http://www.w3.org/2000/svg" data-name="Artboard 30" viewBox="0 0 64 64" id="siren"><path fill="#ffc239" d="M7,48,8.8,5.784A4,4,0,0,1,12.789,2H51.21A4,4,0,0,1,55.2,5.784L57,48Z"></path><path fill="#fff" d="M55.2,5.784A4,4,0,0,0,51.21,2H14V31.152A12.848,12.848,0,0,0,26.848,44H56.83Z" opacity=".4"></path><rect width="6" height="26.488" x="29" y="25" fill="#eaebef"></rect><path fill="#76d8ff" d="M24.315,24.685l-5.694,5.694a2.12,2.12,0,0,1-1.5.621h0A2.122,2.122,0,0,1,15,28.879V11.121A2.122,2.122,0,0,1,17.121,9h0a2.124,2.124,0,0,1,1.5.621l5.694,5.694h15.37l5.694-5.694A2.124,2.124,0,0,1,46.879,9h0A2.122,2.122,0,0,1,49,11.121V28.879A2.122,2.122,0,0,1,46.879,31h0a2.12,2.12,0,0,1-1.5-.621l-5.694-5.694Z"></path><path fill="#fff" d="M26.069,15.315H24.315L18.621,9.621a2.114,2.114,0,0,0-1.268-.6V22.252a1.927,1.927,0,0,0,3.12,1.514l6.57-5.174Z" opacity=".3"></path><circle cx="32" cy="20" r="9" fill="#e24b40"></circle><path fill="#fff" d="M32,11a8.952,8.952,0,0,0-5,1.518v5.36A6.122,6.122,0,0,0,33.122,24h6.931A8.985,8.985,0,0,0,32,11Z" opacity=".2"></path><path fill="#fff" d="M46.879,9a2.122,2.122,0,0,0-1.5.621L42.5,12.505v6.1A5.91,5.91,0,0,0,44.448,23L49,27.1V11.121A2.122,2.122,0,0,0,46.879,9Z" opacity=".3"></path><path fill="#fff" d="M35,46.815V30.152h-.7c-1.56,0-2.826.988-2.826,2.207v12a2.451,2.451,0,0,0,2.451,2.451Z"></path><rect width="60" height="8" x="2" y="54" fill="#eaebef" rx="2"></rect><path fill="#aaadb9" d="M5,54V50a2,2,0,0,1,2-2H57a2,2,0,0,1,2,2v4Z"></path><path fill="#fff" d="M60,54H7v.75A4.25,4.25,0,0,0,11.25,59H62V56A2,2,0,0,0,60,54Z"></path><path fill="#fff" d="M57,48H8.761v.581a2.907,2.907,0,0,0,2.907,2.907H59V50A2,2,0,0,0,57,48Z" opacity=".5"></path></svg>