<svg xmlns="http://www.w3.org/2000/svg" enable-background="new 0 0 47.5 47.5" viewBox="0 0 47.5 47.5" id="water"><defs><clipPath id="a"><path d="M0 38h38V0H0v38Z"></path></clipPath></defs><g clip-path="url(#a)" transform="matrix(1.25 0 0 -1.25 0 47.5)"><path fill="#66757f" d="M0 0a2 2 0 0 1-.01 2.817l-13.556 13.557c-.782.78-2.048.78-2.829 0l-3-3a2 2 0 0 1 0-2.829L-5.839-3.011a2 2 0 0 1 2.829 0l.182.181C-.892-4.779.395-6.664.395-9.47v-6.707a2 2 0 1 1 4 0v6.707C4.395-5.041 2.185-2.197 0 0" transform="translate(32.543 19.47)"></path><path fill="#99aab5" d="M0 0a2.003 2.003 0 0 0-2.829 0l-17.556 17.557a2 2 0 1 0 2.828 2.828L0 2.829C.78 2.048.78.781 0 0" transform="translate(33.103 16.03)"></path><path fill="#55acee" d="M0 0a.999.999 0 0 0 0-1.414l-15.707-15.707a.999.999 0 1 0-1.414 1.414L-1.414 0A.999.999 0 0 0 0 0" transform="translate(18.414 21.414)"></path><path fill="#55acee" d="M0 0a.999.999 0 0 0 0-1.414l-12.707-12.707a.999.999 0 1 0-1.414 1.414L-1.414 0A.999.999 0 0 0 0 0" transform="translate(15.414 24.414)"></path><path fill="#55acee" d="M0 0a.999.999 0 0 0 0-1.414l-9.414-9.414a1 1 0 1 0-1.415 1.414L-1.414 0A.999.999 0 0 0 0 0" transform="translate(12.414 27.414)"></path><path fill="#55acee" d="M0 0a.999.999 0 0 0 0-1.414l-12.707-12.707a.999.999 0 1 0-1.414 1.414L-1.414 0A.999.999 0 0 0 0 0" transform="translate(21.414 18.414)"></path><path fill="#55acee" d="M0 0a.999.999 0 0 0 0-1.414l-9.414-9.414a1 1 0 1 0-1.415 1.414L-1.414 0A.999.999 0 0 0 0 0" transform="translate(24.414 15.414)"></path></g></svg>